<svg id="OBJECTS" xmlns="http://www.w3.org/2000/svg" viewBox="0 0 750 500"><defs><style>.cls-1{opacity:0.4;}.cls-2{fill:#c8baae;}.cls-3{fill:#171612;}.cls-4{fill:#b1614f;}.cls-5{fill:#314fa5;}.cls-6{fill:#1c2b74;}.cls-7{fill:#5a554d;}.cls-8{fill:#fff;}.cls-9{fill:#dbccc1;}.cls-10{fill:#e59f3f;}.cls-11{fill:#632829;}.cls-12{fill:#1e1d12;}.cls-13{opacity:0.5;}.cls-14{fill:#eaad8f;}.cls-15{fill:#c6695d;}.cls-16{fill:#467b6c;}.cls-17{fill:#253f3d;}.cls-18{fill:#32237f;}.cls-19{fill:#b56d25;}.cls-20{fill:#5fa68d;}.cls-21{fill:#e9a48e;}.cls-22{fill:#c04d3a;}.cls-23{fill:#7e231a;}.cls-24{fill:#5f5f75;}.cls-25{fill:#2b2b39;}.cls-26{fill:#df7668;}.cls-27{fill:#cabeb0;}.cls-28{fill:#5880eb;}.cls-29{fill:#f0e8e0;}</style></defs><g class="cls-1"><path class="cls-2" d="M257,370.34a157.54,157.54,0,0,1-78.61-35.55c-28.83-24.53-54.67-64.53-34.82-124C181.21,98.2,352,79.51,429.72,105.49,553.27,146.8,609.89,314,440.08,368.11,397.86,381.57,303,377.28,257,370.34Z"/></g><g class="cls-1"><path class="cls-2" d="M602.84,109.57c-22.17-20.92-60-24.27-79.33-.08-9.79,12.22-10.39,29.8-7,39.42,10.55,30,61.23,76.58,98.4,42.89C639,170,627.29,132.63,602.84,109.57Z"/></g><path class="cls-2" d="M625.17,196.87a.47.47,0,0,1-.32-.12.5.5,0,0,1-.06-.69c.61-.71,1.2-1.44,1.76-2.17a.48.48,0,0,1,.68-.1.49.49,0,0,1,.09.69c-.56.74-1.17,1.49-1.78,2.21A.49.49,0,0,1,625.17,196.87Zm3.87-5.18a.53.53,0,0,1-.27-.08.49.49,0,0,1-.14-.67c.52-.81,1-1.64,1.5-2.47a.48.48,0,0,1,.66-.19.49.49,0,0,1,.19.67c-.49.84-1,1.69-1.54,2.52A.47.47,0,0,1,629,191.69Zm3.18-5.74a.51.51,0,0,1-.2,0,.5.5,0,0,1-.24-.65c.41-.87.79-1.76,1.15-2.65a.48.48,0,1,1,.9.35c-.36.92-.75,1.83-1.16,2.71A.49.49,0,0,1,632.22,186Zm2.36-6.12-.14,0a.48.48,0,0,1-.32-.61c.28-.91.53-1.85.76-2.78a.49.49,0,0,1,1,.22c-.23,1-.5,1.91-.78,2.85A.51.51,0,0,1,634.58,179.83Zm1.5-6.39H636a.49.49,0,0,1-.4-.56c.15-.94.29-1.91.39-2.86a.5.5,0,0,1,.54-.44.49.49,0,0,1,.43.54c-.11,1-.24,2-.4,2.92A.48.48,0,0,1,636.08,173.44Zm.67-6.52h0a.49.49,0,0,1-.47-.51c0-.8,0-1.61,0-2.41v-.48a.48.48,0,0,1,.48-.49h0a.48.48,0,0,1,.48.48V164c0,.82,0,1.64,0,2.45A.48.48,0,0,1,636.75,166.92Zm-.09-6.56a.49.49,0,0,1-.49-.46c-.06-1-.15-1.92-.25-2.88a.48.48,0,1,1,1-.11c.11,1,.2,2,.26,2.93a.47.47,0,0,1-.45.51Zm-.76-6.53a.49.49,0,0,1-.48-.4c-.15-1-.33-1.91-.52-2.86a.48.48,0,1,1,1-.19c.2,1,.38,1.93.53,2.89a.5.5,0,0,1-.4.56Zm-1.33-6.43a.5.5,0,0,1-.48-.37c-.23-.93-.48-1.87-.75-2.8a.49.49,0,0,1,.34-.6.48.48,0,0,1,.6.33c.27.94.52,1.9.76,2.84a.49.49,0,0,1-.35.59Zm-1.84-6.31a.49.49,0,0,1-.46-.33c-.3-.91-.62-1.83-.95-2.75a.49.49,0,0,1,.92-.33c.33.92.66,1.86,1,2.77a.5.5,0,0,1-.31.62Zm-2.26-6.17a.49.49,0,0,1-.45-.3c-.36-.9-.74-1.8-1.12-2.69a.48.48,0,0,1,.25-.64.5.5,0,0,1,.64.26c.39.89.77,1.8,1.13,2.7a.5.5,0,0,1-.27.64A.57.57,0,0,1,630.47,134.92Zm-2.64-6a.48.48,0,0,1-.44-.28c-.41-.87-.85-1.75-1.28-2.61a.48.48,0,0,1,.21-.65.49.49,0,0,1,.66.21c.44.87.87,1.76,1.29,2.64a.48.48,0,0,1-.23.64A.41.41,0,0,1,627.83,128.9Zm-3-5.85a.51.51,0,0,1-.43-.26c-.46-.85-.95-1.71-1.43-2.53a.5.5,0,0,1,.18-.67.49.49,0,0,1,.66.18c.49.83,1,1.69,1.45,2.56a.49.49,0,0,1-.2.66A.46.46,0,0,1,624.84,123.05Zm-3.33-5.68a.49.49,0,0,1-.41-.22c-1-1.55-1.6-2.42-1.6-2.43a.48.48,0,0,1,.11-.68.49.49,0,0,1,.68.12s.64.89,1.63,2.47a.48.48,0,0,1-.41.74Z"/><g class="cls-1"><path class="cls-2" d="M551.16,262c-2.18-26.23,17.64-48.5,43.74-45.06,15.54,2,23,11.18,27.71,18.66,14.55,23.25,15.28,78.19-28,78C564.06,313.47,553.56,290.89,551.16,262Z"/></g><path class="cls-2" d="M260.32,101.28a.74.74,0,0,1-.72-.54.75.75,0,0,1,.51-.93c.94-.27,1.45-.4,1.47-.4a.75.75,0,0,1,.37,1.45l-1.43.39Z"/><path class="cls-2" d="M144.56,184.93a.7.7,0,0,1-.39-.11.74.74,0,0,1-.24-1c.54-.87,1.1-1.75,1.66-2.6a.74.74,0,0,1,1-.22.75.75,0,0,1,.22,1c-.55.84-1.1,1.71-1.64,2.57A.74.74,0,0,1,144.56,184.93Zm4.22-6.4a.72.72,0,0,1-.42-.13.76.76,0,0,1-.19-1.05c.58-.83,1.18-1.68,1.78-2.51a.75.75,0,1,1,1.21.88c-.59.82-1.19,1.66-1.76,2.49A.75.75,0,0,1,148.78,178.53Zm4.52-6.19a.76.76,0,0,1-.59-1.21c.62-.82,1.26-1.63,1.89-2.43a.76.76,0,0,1,1.06-.12.75.75,0,0,1,.12,1c-.63.79-1.26,1.6-1.88,2.41A.77.77,0,0,1,153.3,172.34Zm4.8-6a.74.74,0,0,1-.48-.18.76.76,0,0,1-.09-1.06q1-1.17,2-2.34a.75.75,0,0,1,1.13,1c-.67.77-1.34,1.55-2,2.32A.74.74,0,0,1,158.1,166.36Zm5.07-5.76a.78.78,0,0,1-.51-.2.75.75,0,0,1,0-1.06c.69-.75,1.4-1.51,2.11-2.25a.75.75,0,1,1,1.08,1c-.7.73-1.4,1.48-2.09,2.23A.74.74,0,0,1,163.17,160.6Zm5.32-5.53a.75.75,0,0,1-.53-.22.74.74,0,0,1,0-1.06c.72-.73,1.46-1.45,2.2-2.16a.75.75,0,0,1,1.06,0,.75.75,0,0,1,0,1.06c-.73.7-1.47,1.42-2.18,2.14A.79.79,0,0,1,168.49,155.07Zm5.54-5.31a.75.75,0,0,1-.51-1.3c.75-.69,1.52-1.38,2.29-2.06a.75.75,0,0,1,1.06.06.76.76,0,0,1-.07,1.06c-.76.67-1.52,1.36-2.26,2A.77.77,0,0,1,174,149.76Zm5.75-5.07a.75.75,0,0,1-.48-1.32c.78-.67,1.58-1.33,2.36-2a.75.75,0,1,1,1,1.15c-.78.64-1.57,1.3-2.35,2A.76.76,0,0,1,179.78,144.69Zm5.95-4.85a.74.74,0,0,1-.59-.28.76.76,0,0,1,.13-1.06c.79-.62,1.61-1.25,2.44-1.88a.75.75,0,1,1,.9,1.2l-2.42,1.86A.72.72,0,0,1,185.73,139.84Zm6.13-4.62a.75.75,0,0,1-.44-1.35c.82-.6,1.67-1.21,2.5-1.79a.75.75,0,1,1,.87,1.22c-.83.59-1.67,1.18-2.49,1.78A.74.74,0,0,1,191.86,135.22Zm6.29-4.39a.78.78,0,0,1-.63-.33.74.74,0,0,1,.21-1c.84-.57,1.71-1.14,2.56-1.7a.75.75,0,1,1,.82,1.25l-2.55,1.69A.69.69,0,0,1,198.15,130.83Zm6.44-4.17a.75.75,0,0,1-.4-1.39c.86-.54,1.75-1.08,2.62-1.61a.75.75,0,1,1,.78,1.28l-2.61,1.6A.71.71,0,0,1,204.59,126.66Zm6.57-4a.75.75,0,0,1-.65-.37.76.76,0,0,1,.28-1l2.67-1.52a.74.74,0,0,1,1,.29.75.75,0,0,1-.28,1c-.89.49-1.79,1-2.66,1.51A.75.75,0,0,1,211.16,122.7Zm6.71-3.73a.77.77,0,0,1-.67-.4.75.75,0,0,1,.31-1c.9-.48,1.81-1,2.72-1.44a.75.75,0,1,1,.7,1.33c-.91.47-1.82,1-2.71,1.43A.73.73,0,0,1,217.87,119Zm6.82-3.52A.78.78,0,0,1,224,115a.76.76,0,0,1,.34-1l2.77-1.35a.75.75,0,0,1,1,.35.76.76,0,0,1-.35,1c-.92.44-1.85.89-2.75,1.34A.8.8,0,0,1,224.69,115.45Zm6.93-3.31a.75.75,0,0,1-.32-1.43l2.81-1.26a.75.75,0,1,1,.61,1.37c-.93.41-1.87.83-2.79,1.26A.85.85,0,0,1,231.62,112.14Zm7-3.08a.75.75,0,0,1-.29-1.44l2.84-1.18a.76.76,0,0,1,1,.42.74.74,0,0,1-.41,1L238.94,109A.79.79,0,0,1,238.65,109.06Zm7.12-2.86a.75.75,0,0,1-.26-1.45l2.88-1.08a.76.76,0,0,1,1,.45.75.75,0,0,1-.45,1L246,106.15A.65.65,0,0,1,245.77,106.2Zm7.23-2.61a.75.75,0,0,1-.24-1.46l2.93-1a.75.75,0,0,1,.46,1.43c-.95.3-1.93.63-2.91,1A.67.67,0,0,1,253,103.59Z"/><path class="cls-2" d="M141.46,190.13a.74.74,0,0,1-.65-1.12l.75-1.31a.75.75,0,0,1,1-.27.77.77,0,0,1,.27,1q-.39.64-.75,1.29A.76.76,0,0,1,141.46,190.13Z"/><path class="cls-3" d="M341.48,450.76c2.12-3.42,21.15-21.67,21.15-21.67s3.89,3,3.7,6.4c-.18,3.2,0,20-.09,21.8h-2.31l-1.3-7.68s-5.26,8.42-9.21,11.3-17.3,2.36-20.5,1.94S339.36,454.18,341.48,450.76Z"/><path class="cls-4" d="M362.69,420l-.31,8.23a9.54,9.54,0,0,1,0,6.09c-1.07,3.63-5.11,9.39-9,13.66-3.33,3.69-10.46,7.37-12.6,6.4s4.06-8.32,5.87-12.16a65.45,65.45,0,0,0,3.93-10.82c1-3.67,1.14-12.29,1.14-12.29Z"/><path class="cls-5" d="M365.51,312.67s4.4,14,2.11,38.86c-1.71,18.67-1.88,44.54-1.86,56.27v11.85l-17.49,1.75s-.29-2.82-.62-5.78l-.12-1c-.13-1.17-.27-2.31-.39-3.26,0-.32-.08-.66-.13-1-2.64-20.81-10.75-80.63-10.79-98.23,0-.55,0-1.06,0-1.53v-.15c.44-11.74,4.68-64.86,9-82,3.09-12.2,31.38-5.08,31.38-5.08s-6,52.43-9.3,66.67C363.05,308.71,365.51,312.67,365.51,312.67Z"/><path class="cls-6" d="M349.4,311.84a55.05,55.05,0,0,1-8.11.64,33.07,33.07,0,0,1-5.07-.36c0-.55,0-1.06,0-1.53,5.61.94,12.82-.23,12.91-.25a.76.76,0,0,1,.25,1.5Z"/><path class="cls-3" d="M365.76,413.17l-18.11,2.45-.12-1,18.23-2.47Z"/><path class="cls-3" d="M372.29,239.64a.56.56,0,0,0-.64.46c-.09.53-8.61,52.41-12,65.22a.6.6,0,0,0,0,.23c0,.19,3.16,19,2.71,32-.43,12.55-.66,70.48-.68,75.34.37,0,.69,0,1.06,0,0-5.15.31-62.81.74-75.3s-2.44-30.48-2.71-32.11c3.41-13.06,11.89-64.68,12-65.21A.56.56,0,0,0,372.29,239.64Z"/><path class="cls-5" d="M371.38,256.92c.81.21,1.63.4,2.45.59,10.46,2.39,21.44,3.36,29.12,1.52,3.8-.9,6.22-5.55,7.77-10.75A20.46,20.46,0,0,0,411.8,244c.94-14.44-2.61-20.56-2.61-20.56l-56.58-6.32s-1.88,3.47-4,8a93.69,93.69,0,0,0-4.22,10.56h0a27.85,27.85,0,0,0-1.26,5.61C342.7,246.41,356.16,253.09,371.38,256.92Z"/><path class="cls-3" d="M434.43,426.11s4.33,1.76,4.49,7.85.09,24.13.09,24.13l-1.78.06-1.72-7.95s-.76,6-3.8,9.86-9.6,4-13.93,3.36-1.12-8.65.64-13.13,5.45-15.21,5.45-15.21Z"/><path class="cls-4" d="M431.06,412.9s2.28,10.52,3.37,13.21c.69,1.68,3.05,5.45,1.76,10.57s-2.13,12.59-5.12,15.8-10.78,3.31-11.42.74,4-12.06,4.16-17-2.64-20.6-2.64-20.6Z"/><path class="cls-5" d="M434.83,416.63l-16.33,4.14s-.93-2.84-1.78-5.32c-.11-.34-.22-.66-.33-1s-.3-.87-.43-1.24-.22-.63-.34-1c-6.06-17.13-26-74-29.26-89-.18-.82-.36-1.71-.55-2.68-.1-.48-.2-1-.29-1.51-3.12-16.53-7.41-49.3-7.82-67.48a70.93,70.93,0,0,1,.29-10.12,6.88,6.88,0,0,1,.81-2.45c5.38-9.5,33.26-6.29,33.26-6.29s.05,1.53.13,4.14c.37,13,1.31,51.48,2.07,63.62.93,14.64,3.26,20,3.26,20s5.27,13.74,8.36,38.51c2.3,18.43,6.54,39.37,7.68,49,0,.35.08.69.12,1s.1.84.17,1.31c0,.32.09.66.14,1C434.36,413.84,434.83,416.63,434.83,416.63Z"/><path class="cls-6" d="M398.68,318.27a55.87,55.87,0,0,1-7.91,1.92,32.9,32.9,0,0,1-5,.45c-.1-.48-.2-1-.29-1.51,5.68,0,12.59-2.27,12.67-2.3a.76.76,0,0,1,.49,1.44Z"/><path class="cls-6" d="M434,411.31l-1,.24-.92.22-15.37,3.68c-.11-.34-.22-.66-.33-1l15.35-3.67,1.12-.27,1-.23C433.89,410.63,433.94,411,434,411.31Z"/><path class="cls-3" d="M406,257.29a.54.54,0,0,0,.53-.42.55.55,0,0,0-.41-.66,17.31,17.31,0,0,1-6.31-3.36c-4.25-3.49-6.6-8.48-7-14.83a.55.55,0,0,0-.58-.51.55.55,0,0,0-.51.58c.52,8.33,4.32,13.1,7.43,15.64a18,18,0,0,0,6.71,3.54Z"/><path class="cls-3" d="M430.53,408.12c.07.42.11.65.11.68s.46,2.55.41,2.65l-1,.25c-.07-.07-.5-2.6-.52-2.71s-.05-.27-.12-.7c-1-5.8-7.84-45.55-9.66-58.21-1.68-11.67-8.24-33.9-8.3-34.12a.53.53,0,0,1,0-.12c-1.54-22-5.05-78.6-5.09-79.17a.56.56,0,0,1,1.11-.07c0,.57,3.54,57,5.09,79.1.38,1.29,6.67,22.77,8.32,34.22C422.7,362.58,429.54,402.41,430.53,408.12Z"/><path class="cls-3" d="M372.81,257.26a.54.54,0,0,0,.49-.29.57.57,0,0,0-.23-.76A15.11,15.11,0,0,1,365.91,246a.56.56,0,0,0-.64-.46.57.57,0,0,0-.46.65,16,16,0,0,0,7.74,11A.58.58,0,0,0,372.81,257.26Z"/><path class="cls-3" d="M408.66,172.5c-1.76,11.76-1.24,10.33,4,33.67,0,0,1,7.21,2.17,16.45,1.26,10.23,5.19,23.49-2.58,25.45-5.41,1.35-14.29,2.23-24.28,2l-1-13.14-31.43-5.25a121.48,121.48,0,0,0-1.23,12.83l-.12-.05c-6.86-2.45-11.71-5.46-12.38-8.38-1.22-5.37,1.14-18.37,4.69-33.49.06-.15.56-2.08.71-2.5s.21-.58.33-.94c.72-2.06,1.87-5.65,3.08-10,.26-.92.52-1.87.77-2.85.68-2.57,1.35-5.31,1.94-8.11.23-1.05.44-2.11.64-3.17s.38-2,.54-3,.31-2,.41-2.78a1.23,1.23,0,0,1,0-.19c0-.13,0-.27,0-.4a.17.17,0,0,0,0-.07l-.46-.48-.13-.14c-1.37-1.49-4.72-5.45-5.93-9.82s2.39-11.82,5-20.36c.11-.34.21-.69.32-1,.59-2,1.11-4,1.51-6.11,2.15-11.41,1.61-15.91,19.53-19.12l.78-.07,19.65-1.76,2.8,1c3.54,1.23,9.75,3.37,14.5,5,10.79,3.59,10.06,15.36,5.58,25.81-1,2.39-2,4.87-2.93,7.37l-.36,1A130.32,130.32,0,0,0,408.66,172.5Z"/><path class="cls-7" d="M356.77,132.82q-2.82,8.51-5.66,17c-.12.37.47.53.59.16q2.83-8.5,5.66-17c.12-.37-.47-.53-.59-.16Z"/><path class="cls-7" d="M402.77,199.29a25.28,25.28,0,0,1-11.3,14.16.46.46,0,0,1-.46-.79,24.32,24.32,0,0,0,10.88-13.61c.18-.56,1.06-.32.88.24Z"/><path class="cls-7" d="M348.05,200.66a15.54,15.54,0,0,0,4.53,10.92c.43.41-.22,1.06-.64.65a16.49,16.49,0,0,1-4.8-11.57.46.46,0,0,1,.91,0Z"/><path class="cls-7" d="M370.67,113.05c-3.2,2.91-6.56,5.62-9.73,8.56l-.06-.47q4.13,2.28,8,4.91a.3.3,0,0,1,.06.47q-5.21,5.64-10.43,11.27v-.43c2.14,1.82,4.39,3.52,6.43,5.45.29.27-.14.7-.42.43-2.05-1.93-4.29-3.63-6.43-5.45a.3.3,0,0,1,0-.43q5.21-5.64,10.43-11.27l.06.48q-3.93-2.62-8-4.91a.3.3,0,0,1-.06-.47c3.16-2.94,6.53-5.66,9.72-8.57.29-.26.72.17.43.43Z"/><path class="cls-7" d="M351.7,242a.4.4,0,0,0,.4-.37c2.65-31.61,13-97.87,13.07-98.53a.41.41,0,0,0-.34-.46.4.4,0,0,0-.46.33c-.1.67-10.42,67-13.07,98.59a.39.39,0,0,0,.37.43Z"/><path class="cls-7" d="M389.44,146l.12,0,10.35-3.09a.4.4,0,0,0,.25-.21.42.42,0,0,0,0-.33l-5.08-12.44,9.83-6.18a.39.39,0,0,0,.18-.27.4.4,0,0,0-.08-.32l-7.63-9.49a.4.4,0,0,0-.57-.07.41.41,0,0,0-.06.57l7.35,9.14-9.73,6.11a.4.4,0,0,0-.16.5l5,12.35-9.93,3a.4.4,0,0,0-.28.5A.43.43,0,0,0,389.44,146Z"/><path class="cls-7" d="M390.65,246.29a.45.45,0,0,0,.36-.19.4.4,0,0,0-.08-.56l0,0c-.58-2.13-1.3-22.77-1.67-47.77-.31-21.32-.34-47.77.59-52.1a.4.4,0,0,0-.3-.48.4.4,0,0,0-.48.31c-1,4.47-.92,31.44-.6,53.19.18,12,.46,23.83.78,32.48.53,14.78.89,14.94,1.24,15.1A.39.39,0,0,0,390.65,246.29Z"/><path class="cls-7" d="M353.82,242.75a.39.39,0,0,0,.39-.35.4.4,0,0,0-.34-.45c-5.64-.76-11.28-8.11-11.33-8.18a.4.4,0,0,0-.65.48c.24.32,5.9,7.69,11.87,8.5Z"/><path class="cls-7" d="M397.52,246.66c5.45,0,12.52-.77,18.63-3.95a.4.4,0,0,0-.37-.72c-11.6,6-26.83,3.21-27,3.18a.41.41,0,0,0-.47.32.4.4,0,0,0,.32.47A52.32,52.32,0,0,0,397.52,246.66Z"/><path class="cls-8" d="M398.06,110.66c-1.39,1.66-3.5,5.76-5.78,12.87-.09.26-.17.52-.25.79-.93,3-1.88,6.43-2.81,10.43-.06.25-.12.5-.17.75-.49,2.12-1,4.4-1.45,6.82-.12.63-.23,1.34-.34,2.13,0,.2-.06.42-.09.64-.47,3.77-.8,9-1,15.29,0,.2,0,.41,0,.61-.08,2.63-.15,5.42-.19,8.33,0,.24,0,.48,0,.73-.09,6.46-.09,13.49,0,20.64,0,.23,0,.46,0,.68q0,4.15.09,8.31c0,.19,0,.38,0,.56,0,2.67.08,5.33.13,8,0,.21,0,.42,0,.64,0,1.74.07,3.47.11,5.18,0,.23,0,.45,0,.68.11,4.92.24,9.62.37,14,0,.22,0,.45,0,.66.09,2.71.17,5.26.26,7.63a109.31,109.31,0,0,1-22.61-2.83q-4.45-1-8.82-2.42c.19-1.79.4-3.71.62-5.71h0l.09-.89c.48-4.38,1-9.2,1.58-14.23l.09-.84c.51-4.5,1-9.17,1.6-13.86h0c0-.41.09-.82.14-1.23h0c.52-4.45,1.06-8.9,1.6-13.23,0-.2,0-.41.07-.61.55-4.37,1.09-8.61,1.63-12.6,0-.25.07-.5.1-.75.7-5.12,1.37-9.79,2-13.74.05-.27.09-.54.13-.8s.06-.33.08-.5q1.08-6.53,2.18-12l.12-.59c1.28-6.25,2.54-11.43,3.72-15.68.05-.19.1-.38.16-.56a112.34,112.34,0,0,1,4.19-12.48l19.65-1.76Z"/><path class="cls-9" d="M392.28,123.53c-.09.26-.17.52-.25.79a28.23,28.23,0,0,1-14.35,2.22,17.7,17.7,0,0,1-6.42-2.05c.05-.19.1-.38.16-.56,5.23,3,12,2.58,17.62.83A31.7,31.7,0,0,0,392.28,123.53Z"/><path class="cls-9" d="M389.22,134.75c-.06.25-.12.5-.17.75a71.83,71.83,0,0,1-19.3,5.13c-.76.08-1.54.12-2.33.13l.12-.59a38.05,38.05,0,0,0,5.55-.66,82.42,82.42,0,0,0,10.26-2.6C385.34,136.26,387.29,135.54,389.22,134.75Z"/><path class="cls-9" d="M387.26,144.45c0,.2-.06.42-.09.64A81.22,81.22,0,0,0,365,154c.05-.27.09-.54.13-.8A82,82,0,0,1,387.26,144.45Z"/><path class="cls-9" d="M386.17,160.38c0,.2,0,.41,0,.61a81.88,81.88,0,0,0-23.22,7.51c0-.25.07-.5.1-.75A82.35,82.35,0,0,1,386.17,160.38Z"/><path class="cls-9" d="M373.2,183.48c-.92,1.76-2.28,4.15-1.79,6.2.56,2.33,3.3,2.72,5.31,2.82a19.72,19.72,0,0,0,9.19-1.81c0,.23,0,.46,0,.68a19.11,19.11,0,0,1-11.18,1.54c-9.71-1.79,1.06-15.16,4.47-18.46a35.78,35.78,0,0,1,6.75-5.13c0,.24,0,.48,0,.73A34.37,34.37,0,0,0,373.2,183.48Z"/><path class="cls-9" d="M364.82,188.18a49.54,49.54,0,0,1-4,6.14l-1.3,1.85c0-.41.09-.82.14-1.23h0q1.86-2.66,3.63-5.35c1.16-1.76,2.6-4.3,1.13-6.31a4.33,4.33,0,0,0-3.16-1.57c0-.2,0-.41.07-.61l.39.05a4.71,4.71,0,0,1,3.36,2C366,184.74,365.59,186.62,364.82,188.18Z"/><path class="cls-9" d="M386,200.24a65.08,65.08,0,0,0-24.33,8.08q-2,1.19-3.89,2.55l.09-.84c8.3-5.84,18.05-8.94,28.12-10.35C386,199.87,386,200.06,386,200.24Z"/><path class="cls-9" d="M386.16,208.84l-1.24.46A101.26,101.26,0,0,0,356.13,226l.09-.89a101.84,101.84,0,0,1,29.93-16.9C386.16,208.41,386.16,208.62,386.16,208.84Z"/><path class="cls-9" d="M386.68,229.32a49.36,49.36,0,0,1-6,1.94,21.07,21.07,0,0,1-5.51.94,4.25,4.25,0,0,1-3.56-1.49c-1-1.51-.22-3.31.69-4.66a37.08,37.08,0,0,1,13.93-12c0,.23,0,.45,0,.68a37.79,37.79,0,0,0-5.42,3.43,37,37,0,0,0-7.8,8c-1.16,1.63-2.16,4.25.33,5.2a8.68,8.68,0,0,0,4.74-.06,49.2,49.2,0,0,0,8.52-2.56C386.67,228.88,386.67,229.11,386.68,229.32Z"/><path class="cls-7" d="M402.84,184.63A279,279,0,0,1,411.49,235a.59.59,0,0,0,.59.55h.05a.61.61,0,0,0,.55-.64A280.44,280.44,0,0,0,404,184.32a23.07,23.07,0,0,1-.32-7.19c.08-1,.19-2,.32-3.14s.26-1.93.42-2.93c0-.33.11-.66.16-1,2.74-16.32,10-38.53,10.14-38.83a.6.6,0,1,0-1.14-.38c-.41,1.25-7.57,23-10.23,39.28,0,.34-.1.66-.15,1-.23,1.47-.42,2.9-.56,4.25s-.23,2.72-.26,4A19.53,19.53,0,0,0,402.84,184.63Z"/><path class="cls-3" d="M390.88,63.18s-1.52-13.85,12.22-15.07c11-1,16.43,13.9,9.33,26.51s1,19.53,8.91,15.45c0,0-3,7.46-14.15,4.54S390.88,63.18,390.88,63.18Z"/><path class="cls-3" d="M405.31,87.35a24.31,24.31,0,0,1-6.92,8.17c-8.4,6.59-15.57,11.26-25.32,6.42-2.94-1.53-5-5.19-5.09-5.29-1.5-2.72-2.51-8.14-2.64-12.83s.49-3-1.35-9.83c-2.8-10.32,10.64-15.45,10.64-15.45,4.9-3,18.75-5.29,28,4.84,5.71,6.23,7,13.22,3.07,22.45A7.91,7.91,0,0,0,405.31,87.35Z"/><path class="cls-10" d="M392.23,57.41a21.35,21.35,0,0,1,14.59,14.75.37.37,0,0,0,.72-.2,22.11,22.11,0,0,0-15.11-15.27.37.37,0,0,0-.2.72Z"/><path class="cls-10" d="M400.58,61a7,7,0,0,1,6.95-4.73c.63.05,1.34.29,1.1,1.12-.1.33-.69.81-.95,1a9.47,9.47,0,0,1-2.06,1.37,9.68,9.68,0,0,1-5,.92c-.48,0-.48.72,0,.75a10.33,10.33,0,0,0,6.57-1.72c1-.68,3.42-2.59,1.78-3.83-1.36-1-4-.26-5.32.43a8.07,8.07,0,0,0-3.8,4.46c-.17.45.56.64.73.19Z"/><path class="cls-10" d="M400.18,61c.54-2.13,1.12-4.45.43-6.61-.45-1.42-1.69-2.87-3.34-2.45s-1.81,2.18-1.34,3.49a13,13,0,0,0,3.61,5c.35.33.88-.2.53-.53-1.16-1.06-5.77-6.27-2.54-7.06a1.48,1.48,0,0,1,1.71.55,2.9,2.9,0,0,1,.52.9,6.15,6.15,0,0,1,.41,2.25,17.26,17.26,0,0,1-.71,4.27.37.37,0,0,0,.72.2Z"/><path class="cls-11" d="M368.82,82.65a2.84,2.84,0,0,0-2.36,2.66c-.39,2.51.84,6.7,3.38,6.2S368.82,82.65,368.82,82.65Z"/><path class="cls-10" d="M369.06,95.76a3.45,3.45,0,1,1,3.32-3.59A3.46,3.46,0,0,1,369.06,95.76Zm-.24-5.89a2.44,2.44,0,1,0,2.55,2.34A2.44,2.44,0,0,0,368.82,89.87Z"/><line class="cls-4" x1="375.64" y1="102.15" x2="375.64" y2="102.15"/><path class="cls-4" d="M396.87,110.64a18.5,18.5,0,0,1-11.3,6c-9.33,1.3-10.38-2.72-10.38-2.72a17.36,17.36,0,0,0,.76-3.86c.05-.51.08-1,.09-1.58a45.34,45.34,0,0,0-.25-5c0-.44-.09-.89-.14-1.36v0c6.46-1.5,11.76-4.34,15.4-9.08l1-.58.65-.38.12.37-.13,1.2C392,99.33,393.89,105.73,396.87,110.64Z"/><path class="cls-12" d="M396.4,110c-2,3.42-4.14,6.75-6.45,10s-4.61,6.64-7.67,8.91c-1.7,1.27-4,2.21-6.07,1.33s-2.46-3.39-2.48-5.47a31.15,31.15,0,0,1,2.2-13.1c.2-.44-.45-.82-.65-.38A29.5,29.5,0,0,0,373,122.07c-.11,2.81-.49,6.91,2.36,8.58,2.67,1.56,5.91.11,8-1.7a45.34,45.34,0,0,0,6.56-7.73,120.66,120.66,0,0,0,7.09-10.83.38.38,0,0,0-.65-.38Z"/><path class="cls-3" d="M386.54,98c-1.38,3.07-4.57,8.5-10.5,10.5a45.34,45.34,0,0,0-.25-5c0-.44-.09-.89-.14-1.36l.38,0C379.55,102.5,383.38,100.7,386.54,98Z"/><path class="cls-4" d="M400.56,82.85c.2,3.5-2.51,8-7.08,8.35h-.12c-.06.2-.14.4-.22.61s-.06.18-.1.27,0,0,0,0c-2.51,6.11-10.77,10.1-15.35,10.49a10.62,10.62,0,0,1-3.11-.22c-4.92-.78-6.21-7.28-5.74-12.34a20.51,20.51,0,0,1,.31-2.09l0-.14s-2-6.92-2.59-10c-1.08-5.89,2-12.11,14.91-14.05S398,69.77,399.18,74c.2.7.3,5-.37,5.69A3.48,3.48,0,0,1,400.56,82.85Z"/><path class="cls-11" d="M375.67,94.42l.48-.12A4.76,4.76,0,0,0,378.66,92a.52.52,0,0,0-.24-.7.53.53,0,0,0-.7.25,3.75,3.75,0,0,1-1.88,1.78A1.87,1.87,0,0,1,374,93a.52.52,0,0,0-.76.71A2.82,2.82,0,0,0,375.67,94.42Z"/><path class="cls-11" d="M377.19,96.56a2,2,0,0,0,1-.77.33.33,0,0,0-.11-.45.32.32,0,0,0-.45.1,1.32,1.32,0,0,1-1.4.52.33.33,0,0,0-.12.65A2.2,2.2,0,0,0,377.19,96.56Z"/><path class="cls-3" d="M371.62,85c.12.86.58,1.5,1,1.44s.71-.81.59-1.67-.58-1.5-1-1.44S371.49,84.15,371.62,85Z"/><path class="cls-3" d="M373.63,84.16a.24.24,0,0,0,.11-.09.23.23,0,0,0-.08-.32c-.09,0-2.24-1.32-4,.08a.22.22,0,0,0,0,.32.23.23,0,0,0,.32,0c1.5-1.21,3.45-.06,3.47,0A.21.21,0,0,0,373.63,84.16Z"/><path class="cls-3" d="M379.11,84.07c.12.86.58,1.51,1,1.44s.71-.81.59-1.66-.58-1.51-1-1.44S379,83.22,379.11,84.07Z"/><path class="cls-3" d="M381.51,83.49a.28.28,0,0,0,.12-.08.23.23,0,0,0,0-.32c-.08-.07-2.06-1.6-4-.43a.23.23,0,0,0-.07.32.22.22,0,0,0,.31.07c1.64-1,3.43.39,3.44.4A.23.23,0,0,0,381.51,83.49Z"/><path class="cls-10" d="M396,87.77a.68.68,0,0,0,0,1,2.44,2.44,0,1,1-1.83.53l-.05-1.17a3.45,3.45,0,1,0,1.84-.38Z"/><path class="cls-3" d="M398.81,79.69a8.2,8.2,0,0,0-1.05.18,7.74,7.74,0,0,0-4.47,3.36c-.17-1.19-1.38-6.66-9.33-7.64l-.37,0a6.77,6.77,0,0,1-.84-3.43c.83-3.22-14.77-1.74-15.34,3.22-.25,2.08-.38,3.43-.45,4.31h0a8.38,8.38,0,0,0-.07,1.62s-1.39,1.41-1.43-5.43a9.26,9.26,0,0,1,2.37-6.08c3.15-3.74,9.08-6.39,15.62-7.16,9.68-1.13,16.61,9.09,17,12.8S398.81,79.69,398.81,79.69Z"/><g class="cls-13"><path class="cls-11" d="M371.43,88.9c0,.52-1.09,1-2.6,1.16a20.51,20.51,0,0,1,.31-2.09C370.46,88.06,371.42,88.42,371.43,88.9Z"/></g><path class="cls-3" d="M378.16,79.76a1,1,0,0,1-1.38-1.29,2.73,2.73,0,0,1,1.59-1.14,7,7,0,0,1,6.13,1.11s-3.72,0-5.41.78A5.74,5.74,0,0,0,378.16,79.76Z"/><path class="cls-3" d="M372,80.65a1,1,0,0,0,1.05-1.58,2.86,2.86,0,0,0-1.82-.74c-3.63-.22-4.53,2.17-4.53,2.17a12.87,12.87,0,0,1,4.27-.16A4.88,4.88,0,0,1,372,80.65Z"/><g class="cls-13"><path class="cls-11" d="M379.52,88.49c0,.6,1.52,1,3.35.94s3.28-.61,3.25-1.2-1.52-1-3.34-.94S379.5,87.9,379.52,88.49Z"/></g><path class="cls-11" d="M393.48,91.2h-.12c-.06.2-.14.4-.22.61l-.1.27s0,0,0,0a4.28,4.28,0,0,1-1.81-.6,3.33,3.33,0,0,1-1-1,.46.46,0,0,1,.12-.65A.47.47,0,0,1,391,90a2.57,2.57,0,0,0,1.18.92,3.82,3.82,0,0,0,.84.21Z"/><path class="cls-11" d="M392.89,88.5a.46.46,0,0,0,.36-.4c.44-3.33,4.29-5,4.33-5a.47.47,0,1,0-.37-.87c-.18.07-4.38,1.87-4.89,5.75a.47.47,0,0,0,.4.53Z"/><path class="cls-11" d="M396.89,86.42a.46.46,0,0,0,.16-.07.47.47,0,0,0,.12-.66,3.24,3.24,0,0,0-2.93-1.24.47.47,0,0,0-.43.51.49.49,0,0,0,.52.43,2.31,2.31,0,0,1,2.07.84A.47.47,0,0,0,396.89,86.42Z"/><path class="cls-3" d="M396.73,97.21c-2.6,1.87-5.24,2.85-8.06.33a24.29,24.29,0,0,1,2.13-11.49c2.32-4.42-1.58-9.94-1.58-9.94,2.51,1.07,5.3,1.07,6.77,4C393.46,83,394.94,90.86,396.73,97.21Z"/><path class="cls-8" d="M380.49,88.52a4.75,4.75,0,1,0-4.59-4.91A4.76,4.76,0,0,0,380.49,88.52Zm-3.93-4.89a3.44,3.44,0,0,1,.05-.45,3.54,3.54,0,0,1,.26-1,4,4,0,0,1,.84-1.28,4.14,4.14,0,0,1,2.06-1.15,3.81,3.81,0,0,1,1-.08,4.08,4.08,0,0,1,3.95,4.22c0,.14,0,.28,0,.41a4.08,4.08,0,0,1-1,2.15,3.88,3.88,0,0,1-1.2.93,4.08,4.08,0,0,1-6-3.77Z"/><path class="cls-8" d="M369.68,89.62a4.75,4.75,0,1,0-4.59-4.91A4.76,4.76,0,0,0,369.68,89.62Zm-3.93-4.89a3.42,3.42,0,0,1,0-.45,3.94,3.94,0,0,1,.27-1A4.06,4.06,0,0,1,366.9,82,4.11,4.11,0,0,1,369,80.87a5,5,0,0,1,1-.08A4.08,4.08,0,0,1,373.93,85c0,.14,0,.28,0,.41a4,4,0,0,1-2.18,3.09,4.33,4.33,0,0,1-.95.36,4.64,4.64,0,0,1-1.07.09A4.08,4.08,0,0,1,365.75,84.73Z"/><path class="cls-8" d="M385,82.66a.49.49,0,0,0,.19-.07A9.83,9.83,0,0,1,391.2,81a.39.39,0,1,0,.1-.77,10.39,10.39,0,0,0-6.57,1.67.39.39,0,0,0-.12.54A.41.41,0,0,0,385,82.66Z"/><path class="cls-8" d="M365.54,85.94a.35.35,0,0,0,.17,0,5.31,5.31,0,0,1,2.75-.52.39.39,0,0,0,.44-.34.4.4,0,0,0-.34-.44,6,6,0,0,0-3.22.61.39.39,0,0,0,.2.73Z"/><path class="cls-11" d="M374.78,89.73a.43.43,0,0,1-.22,0l-1.84-.94a.4.4,0,0,1-.22-.33.38.38,0,0,1,.18-.35,5.74,5.74,0,0,0,2.43-4.18.4.4,0,1,1,.79.13,6.59,6.59,0,0,1-2.25,4.31l1.27.65a.39.39,0,0,1,.18.53A.4.4,0,0,1,374.78,89.73Z"/><path class="cls-8" d="M374.38,84.65a.41.41,0,0,0,.26-.11,1.11,1.11,0,0,1,1.31-.18.4.4,0,0,0,.53-.15.39.39,0,0,0-.15-.53,1.9,1.9,0,0,0-2.23.3.38.38,0,0,0,0,.55A.42.42,0,0,0,374.38,84.65Z"/><path class="cls-3" d="M400.75,161.7c-.53.2-13.07,4.89-26.36,8.83a161,161,0,0,1-19.68,4.77,44.78,44.78,0,0,1-6.91.62c-.59,0-1.15,0-1.69,0a15.55,15.55,0,0,1-5.23-1.22,8.18,8.18,0,0,1-.89-.44,10.19,10.19,0,0,1-3.84-3.59,10.58,10.58,0,0,1-1.45-6.87c0-.22,0-.45.07-.67a35.41,35.41,0,0,1,2.55-8.36c1.59-3.87,4-8.81,7.18-14.69,5.27-9.79,10.81-18.83,11.05-19.21a15.66,15.66,0,0,1,4.6-3.88c-1.56,4.89-3.63,10.8-5,15.74-1.13,4-2.72,7.69-3.41,11.76-.53,3.11-1.6,6.6-1,9.73.35,1.91,1.33,3.56,3.08,4-.11.26-.23.5-.33.74a176.42,176.42,0,0,0,19.93-5.19c11.36-3.52,21.52-7.32,21.62-7.36a8.22,8.22,0,0,1,5.77,15.39Z"/><path class="cls-7" d="M340,174.21a10.19,10.19,0,0,1-3.84-3.59,10.58,10.58,0,0,1-1.45-6.87C337.61,166,340.82,169.65,340,174.21Z"/><path class="cls-3" d="M425.61,160.37c0-1.14-.06-2.22-.11-3.29-.11-2.12-.27-4.18-.46-6.21-.37-4.05-.84-8-1.35-12q-.39-3-.81-5.9l-.43-2.95-.45-3c0-.13-.05-.3-.08-.43a10.21,10.21,0,1,0-20,4l0,.11.54,2.76.54,2.8c.35,1.87.68,3.75,1,5.62.65,3.74,1.25,7.48,1.75,11.15.23,1.72.44,3.43.6,5.08-1.27-.09-2.59-.22-3.92-.36q-2.73-.28-5.52-.68c-3.72-.5-7.48-1.1-11.24-1.74s-7.54-1.34-11.31-2.06l-5.65-1.12-2.82-.57L363.1,151l-.11,0a8.22,8.22,0,0,0-3.69,16l2.89.73,2.87.71c1.91.47,3.83.94,5.75,1.39q5.74,1.37,11.55,2.62c3.87.83,7.77,1.62,11.73,2.34,2,.35,4,.69,6,1s4.11.58,6.29.78c1.09.1,2.22.19,3.42.23.6,0,1.23,0,1.89,0s1.38,0,2.19-.11c.41,0,.85-.09,1.34-.17l.61-.11c.32-.07.68-.15,1.07-.26a12.86,12.86,0,0,0,2.47-1,11.4,11.4,0,0,0,1.8-1.17,10.76,10.76,0,0,0,2.18-2.35,9.91,9.91,0,0,0,1-1.8c.09-.22.18-.44.26-.67l.11-.34.09-.27.15-.53,0-.13,0-.11.05-.22.05-.25,0-.19c.05-.26.09-.5.13-.75a21.93,21.93,0,0,0,.25-2.36C425.62,162.69,425.63,161.51,425.61,160.37Z"/><path class="cls-7" d="M425.1,167.36l-.05.25-.05.22,0,.11,0,.13-.15.53-.09.27-.11.34c-.08.23-.17.45-.26.67a9.91,9.91,0,0,1-1,1.8,10.76,10.76,0,0,1-2.18,2.35,11.4,11.4,0,0,1-1.8,1.17,12.86,12.86,0,0,1-2.47,1c-.39.11-.75.19-1.07.26C416.38,171.23,421.54,168.58,425.1,167.36Z"/><path class="cls-4" d="M359.1,155a8.86,8.86,0,0,0,.57-4.92c-1-.88-1.85-1.62-2.27-2a33.75,33.75,0,0,0-5.6-4c-2.29-1.4-3.82-1.47-5.9-1.8s-5.43.57-4.53,1.7,3.75.2,5.87,1.23a19.09,19.09,0,0,1,3.25,1.91,11.41,11.41,0,0,0-6.8-.39c-3.56.72-4.37,2.67-3.36,3s2,.44,4.52-.15a10.27,10.27,0,0,1,5.4.62c-1.54-.32-7,0-8.48,1.46s-.08,2.46,1.78,2,6.67.22,6.67.22a33.71,33.71,0,0,0-4.52.78c-.29.08-2.48,1-.45,1.93,1.38.6,4.84.28,7.68.67a10.32,10.32,0,0,1,3,1A7.83,7.83,0,0,0,359.1,155Z"/><path class="cls-4" d="M359.65,149.69c-.75-1.43-2-3.6-2.91-4.24-1.41-1-3-3.18-3.73-2.29s1.31,3.55,1.31,3.55l5.38,3.85C359.68,150.27,359.66,150,359.65,149.69Z"/><path class="cls-7" d="M352.66,158.63a16.71,16.71,0,0,0-4.32,5.62c-.2.44.45.82.65.38a16.17,16.17,0,0,1,4.2-5.47c.36-.32-.17-.85-.53-.53Z"/><path class="cls-7" d="M380.61,170.05A142.37,142.37,0,0,1,403,161.13a.37.37,0,0,0-.2-.72,142.34,142.34,0,0,0-22.54,9c-.43.22-.05.87.38.65Z"/><path class="cls-7" d="M407.75,163.11a10.18,10.18,0,0,1,3.92,3.81.38.38,0,0,0,.65-.38,11,11,0,0,0-4.19-4.08c-.43-.23-.81.41-.38.65Z"/><path class="cls-7" d="M361.3,157.55a104.13,104.13,0,0,1,12-3.54c.47-.11.27-.83-.2-.72a104.13,104.13,0,0,0-12,3.54c-.45.16-.26.88.2.72Z"/><path class="cls-4" d="M392.88,153a5.65,5.65,0,0,0,5.93,5.11,13.58,13.58,0,0,1,4.67.51c3.19,1.1,6.65,3.3,8.42,3.4,2.61.16.82-2,.56-2.26a39.23,39.23,0,0,0-4.33-3.24s5.44,1.84,7.12,3.35,3.69,1.18,2.93-1.12-6.33-5.58-8.12-6.07a12,12,0,0,1,6,2.24c2.35,2,3.45,2.36,4.67,2.58s1.41-2.27-1.93-4.93a13.55,13.55,0,0,0-7.35-3.24,23.23,23.23,0,0,1,4.44-.26c2.78.06,5.31,2.56,6.82,1.86s-1.5-3.45-3.85-4.21-4-1.52-7.15-1.28a39.63,39.63,0,0,0-8,1.18c-1.85.6-8.72,1.86-10.34,4.15A3.46,3.46,0,0,0,392.88,153Z"/><path class="cls-4" d="M399.08,148.17s4.71-3.63,6.7-3.9,4.85-1.72,5.14-.4-3.28,3-3.28,3Z"/><path class="cls-14" d="M249.82,237.89l-.37,1.61-.37,1.57c-.25,1-.52,2.08-.79,3.11-.53,2.08-1.11,4.14-1.7,6.2-1.21,4.11-2.51,8.22-4,12.32-.75,2.05-1.54,4.11-2.42,6.16s-1.83,4.12-2.91,6.21c-.54,1.05-1.12,2.11-1.78,3.17a35.77,35.77,0,0,1-2.19,3.26,24.8,24.8,0,0,1-3.1,3.47,18.28,18.28,0,0,1-2.37,1.83,18,18,0,0,1-1.6.89,14.77,14.77,0,0,1-2,.76,12.11,12.11,0,0,1-2.45.46l-.66,0h-1l-.24,0-.47,0c-.62-.06-1.17-.15-1.68-.25s-1-.22-1.42-.34a26.81,26.81,0,0,1-4.38-1.69c-1.26-.6-2.38-1.22-3.46-1.85s-2.08-1.27-3.06-1.93c-1.95-1.31-3.78-2.65-5.56-4s-3.48-2.76-5.15-4.17-3.31-2.85-4.91-4.3-3.19-2.92-4.75-4.4-3.09-3-4.6-4.51l-2.26-2.3L177.06,258l-1.14-1.21a9.34,9.34,0,0,1,13.48-12.93l.11.1,1,1.05,1.06,1.07,2.14,2.15c1.43,1.43,2.87,2.86,4.32,4.27s2.9,2.81,4.37,4.19,2.92,2.74,4.4,4.06l2.22,2c.74.65,1.49,1.28,2.23,1.9,1.48,1.24,3,2.43,4.44,3.51.73.54,1.45,1.05,2.16,1.52s1.38.89,2,1.23l.25.13c.45-.51.93-1.13,1.41-1.8s1-1.42,1.47-2.18c1-1.54,1.92-3.2,2.84-4.91s1.8-3.48,2.66-5.28c1.72-3.59,3.36-7.3,4.93-11.06.8-1.87,1.56-3.76,2.33-5.66l1.12-2.84.56-1.42.54-1.39.05-.14a6.19,6.19,0,0,1,11.8,3.61Z"/><path class="cls-15" d="M222.25,277.59a12.19,12.19,0,0,0-2.05-6.32c-.21-.32.32-.61.53-.29a12.72,12.72,0,0,1,2.12,6.62c0,.39-.59.37-.6,0Z"/><path class="cls-15" d="M224,275.59a12.24,12.24,0,0,0-2.47-2.51c-.31-.24,0-.76.31-.52a13.09,13.09,0,0,1,2.68,2.73c.23.32-.3.61-.52.3Z"/><path class="cls-14" d="M242.48,221.21s.22,0-.36-1.27c-1-2.08.52-5.72-.67-6.86-1.61-1.53-2.66,1.78-4.23,8.35-.41,1.73.13,7.88.7,9.79.43,1.44.3,3.42,1.13,4.2,2.65,2.47,9.58,3.15,10.78,1.68,1.77-2.17,2.79-7.49,3.85-9.35s6.39-14.6,4.84-14.49-4.54,6-4.54,6,3.47-10.09,1.84-10.69-4.74,8.85-4.74,8.85,3.23-12.73.9-12.36c-1.16.18-4.4,11.55-4.4,11.55s1.63-7.52-1.57-7.7c-3.36-.18-4.95,3.39-4.95,3.39s.1,2.33,2.9.32C246.44,210.8,242.48,221.21,242.48,221.21Z"/><path class="cls-15" d="M253.69,222.43a.44.44,0,0,0,0-.58,12.56,12.56,0,0,0-9.14-3.25.44.44,0,0,0-.4.48.45.45,0,0,0,.48.4h0a11.79,11.79,0,0,1,8.44,3,.44.44,0,0,0,.62,0Z"/><path class="cls-15" d="M247.17,231.26a.42.42,0,0,0,0-.49c-2.68-4.51-.3-7.87-.28-7.9a.43.43,0,0,0-.09-.61.44.44,0,0,0-.61.09h0c-.11.16-2.74,3.86.24,8.87a.45.45,0,0,0,.6.15A.43.43,0,0,0,247.17,231.26Z"/><path class="cls-5" d="M137.89,444.36v6.18h4.48v-2.79a1.43,1.43,0,0,1,1.43-1.43H163a1.2,1.2,0,0,1,1.2,1.2v3h5.2v-3a1.2,1.2,0,0,1,1.2-1.2h19a1.43,1.43,0,0,1,1.42,1.43v2.79h4.48v-6.18a2.51,2.51,0,0,0-2.52-2.51H169.37V362.22h-5.2v79.63H140.41A2.51,2.51,0,0,0,137.89,444.36Z"/><path class="cls-6" d="M162.85,404.87h7.84a.94.94,0,0,0,.94-.95V370.29H161.9v33.63A1,1,0,0,0,162.85,404.87Z"/><path class="cls-3" d="M186.53,454.54a6.67,6.67,0,1,0,6.67-6.67A6.67,6.67,0,0,0,186.53,454.54Z"/><path class="cls-7" d="M193.2,458.35a3.82,3.82,0,1,0-3.82-3.81A3.82,3.82,0,0,0,193.2,458.35Z"/><path class="cls-3" d="M160,454.54a6.67,6.67,0,1,0,6.66-6.67A6.66,6.66,0,0,0,160,454.54Z"/><path class="cls-7" d="M166.69,458.35a3.82,3.82,0,1,0-3.81-3.81A3.82,3.82,0,0,0,166.69,458.35Z"/><path class="cls-3" d="M133.43,454.54a6.67,6.67,0,1,0,6.67-6.67A6.67,6.67,0,0,0,133.43,454.54Z"/><path class="cls-7" d="M140.1,458.35a3.82,3.82,0,1,0-3.82-3.81A3.82,3.82,0,0,0,140.1,458.35Z"/><path class="cls-6" d="M84.41,248.14,112.69,366a8.47,8.47,0,0,0,8.23,6.48h66.4A8.45,8.45,0,0,0,195.53,362L166.6,244.15a8.46,8.46,0,0,0-8.21-6.44H92.63A8.45,8.45,0,0,0,84.41,248.14Z"/><path class="cls-5" d="M91.71,248.14,120,366a8.47,8.47,0,0,0,8.23,6.48h66.39A8.46,8.46,0,0,0,202.84,362L173.91,244.15a8.46,8.46,0,0,0-8.21-6.44H99.94A8.46,8.46,0,0,0,91.71,248.14Z"/><path class="cls-6" d="M125.59,364.65,97.3,246.8a2.72,2.72,0,0,1,2.64-3.35H165.7a2.7,2.7,0,0,1,2.63,2.07l28.93,117.85a2.71,2.71,0,0,1-2.64,3.36H128.23A2.71,2.71,0,0,1,125.59,364.65ZM99.94,244.21a2,2,0,0,0-1.9,2.41l28.29,117.85a2,2,0,0,0,1.9,1.5h66.39a2,2,0,0,0,1.9-2.42L167.59,245.7a1.94,1.94,0,0,0-1.89-1.49Z"/><path class="cls-6" d="M234.25,376H122.73a9.57,9.57,0,0,1-9.31-7.4l-1.49-6.42H231Z"/><path class="cls-5" d="M232.72,376H129.9a9.57,9.57,0,0,1-9.31-7.4l-1.49-6.42H232.72a6.9,6.9,0,0,1,6.72,5.34h0A6.91,6.91,0,0,1,232.72,376Z"/><path class="cls-3" d="M169.87,183.8s14.57,5.24,11.6,22c-3.24,18.31-6.33,35-3.87,44.92,0,0-42.08,3.68-50.13-7.86,0,0,12.09-18.94,12.61-31.5s1.12-26.61,11.74-29S169.87,183.8,169.87,183.8Z"/><path class="cls-14" d="M190.55,328.08c-1,.29-2.08.55-3.11.8l-1.29.31a118.54,118.54,0,0,1-40.69,2.23l-1.32-.16a74.91,74.91,0,0,1-9.09-1.73h0a50.33,50.33,0,0,0,1.53-9.88c.07-1.12.11-2.22.15-3.26h0c.06-1.94.07-3.7.06-5.16v-.08h0c0-1,0-1.81,0-2.47,6.45-1.22,18.33-3.36,29.36-4.72,8-1,15.53-1.57,20.2-1.1l.26,1.74.4,2.56.33,1.92.73,4.2,2.51,14.49Z"/><path class="cls-16" d="M136.42,321.3s36.62,4.35,52.2-5.05c0,0,3.38,15.52,3.08,19.64-.71,9.87-56,7.68-57.38-2C133.7,329.67,136.42,321.3,136.42,321.3Z"/><path class="cls-17" d="M136.33,320.25a9.77,9.77,0,0,0-1.22,5.89s36.57,5,54.57-4.72a7.26,7.26,0,0,0-1.34-6.12S174.2,324.92,136.33,320.25Z"/><path class="cls-15" d="M186.93,307.15c-3.87.28-9,.78-14.74,1.67-11.08,1.72-24.48,4.92-35.65,10.82.07-1.12.11-2.22.15-3.26h0c.06-1.94.07-3.7.06-5.16v-.08h0c0-1,0-1.81,0-2.47,6.45-1.22,18.33-3.36,29.36-4.72,8-1,15.53-1.57,20.2-1.1l.26,1.74Z"/><path class="cls-18" d="M136.69,316.38h0c-6.31-.27-5.06-3.81-5.06-3.81l0,0,5.08-1.41h0v.08Z"/><path class="cls-8" d="M197.21,281.82q0,.62-.15,1.26c0,.16-.07.34-.11.51a11.69,11.69,0,0,1-.35,1.21c-.09.25-.18.5-.29.75a34.56,34.56,0,0,1-5.46,8.47c-.18.21-.35.41-.51.58l-.47.52-.58.58-.22.21-.3.26v.08l0,.63c0,.36,0,.76.08,1.18s.08,1,.13,1.52a2.45,2.45,0,0,1,0,.27v.09c0,.12,0,.25,0,.38.08.78.16,1.62.26,2.51s.19,1.62.3,2.48h0a28,28,0,0,0-3.09-.72h0c-5.68-1-12.67-.78-19.85.12-1.05.13-2.09.27-3.14.43l-1.72.26h0c-3.63.58-7.24,1.29-10.69,2.06l-.82.18c-5,1.14-9.71,2.39-13.56,3.49-1.92.55-3.63,1.07-5.09,1.52v-.11c.08-1.06.15-2.1.2-3.11,0-.7.07-1.38.09-2.06l0-1c0-1.4,0-2.76,0-4.07,0-.76,0-1.51-.06-2.24,0-.33,0-.65,0-1,0-.91-.11-1.8-.18-2.66a.49.49,0,0,0,0-.12c-.11-1.32-.28-2.79-.51-4.38l-.12-.81c-.62-4.06-1.59-8.79-2.84-13.71l-.18-.73a.24.24,0,0,1,0-.08c-.25-1-.51-1.94-.78-2.92-.07-.28-.15-.56-.23-.84s-.09-.32-.13-.47-.07-.24-.11-.37c-.1-.36-.2-.72-.31-1.09s-.21-.71-.31-1.06c-.19-.62-.38-1.25-.58-1.87l0-.1c-.06-.2-.12-.41-.19-.61l-.18-.57c-.41-1.28-.84-2.55-1.28-3.79-.26-.74-.5-1.49-.72-2.23l-.14-.47c-.07-.24-.14-.48-.2-.73s-.11-.4-.16-.6h0c-.15-.59-.29-1.19-.42-1.79h0l-.18-.89h0c-.16-.9-.29-1.78-.39-2.66h0a27.12,27.12,0,0,1-.16-3.22c0-.29,0-.58,0-.86s0-.66.07-1,0-.49.07-.74a0,0,0,0,1,0,0c0-.26.06-.51.1-.76s0-.25.07-.37l.07-.37c0-.12,0-.24.08-.37h0l.06-.24,0-.12c0-.11,0-.22.08-.32s.08-.29.13-.43c.09-.32.2-.63.32-.94,0,0,0,0,0-.05l.13-.33c0-.11.1-.22.14-.33s.1-.23.16-.34.2-.41.31-.61l.2-.34c0-.1.11-.19.16-.28s.26-.4.4-.59l.2-.28.18-.23.06-.08c.06-.07.12-.15.19-.22a7.55,7.55,0,0,1,.54-.59l.21-.21a3.2,3.2,0,0,1,.27-.25l.27-.24.28-.24.19-.15a11.55,11.55,0,0,1,1.58-1,1.71,1.71,0,0,1,.23-.13l.25-.13.43-.21.14-.06.27-.12c.4-.17.82-.32,1.26-.46l.08,0,.35-.11.51-.14,1.26-.32,1.23-.3c5.14-1.26,9.46-2,11-2.33l.3-.05.14,0h.21l2.09.32,19.38,2.93.65.1,1.19.18.48.07,2.26.35c2.19.39,4.1.78,5.79,1.19l1.46.37,1,.28a25.61,25.61,0,0,1,4.76,1.82,11.6,11.6,0,0,1,2.36,1.62l.16.15q.28.29.54.57l.12.15a7.42,7.42,0,0,1,1,1.59,3.39,3.39,0,0,1,.18.39c.12.26.22.53.32.81,0,.1.07.21.1.33s.11.35.16.53l.15.61c.05.23.1.46.15.71l0,.17c0,.14,0,.28.07.41l.06.35a.88.88,0,0,0,0,.16c.09.58.17,1.19.24,1.84l.06.53c0,.14,0,.29.05.44s0,.34,0,.51c.07.66.15,1.35.23,2.07a.22.22,0,0,0,0,.08c0,.15,0,.3.05.45l0,.25,0,.3c0,.13,0,.27,0,.41s0,.09,0,.14,0,.26.05.39.07.53.11.78c.09.64.2,1.27.31,1.9h0l.15.82,0,.14h0a2.56,2.56,0,0,0,.05.27c.27,1.4.58,2.78.92,4.15,1.48,6,3.37,9.87,4.13,13.42.05.25.1.5.14.75A13.18,13.18,0,0,1,197.21,281.82Z"/><path class="cls-18" d="M189.64,305.31a3.36,3.36,0,0,1-2.42,3.78l-.69-4.5A10,10,0,0,1,189.64,305.31Z"/><path class="cls-9" d="M190.31,249a63.7,63.7,0,0,1-9.77,2.09c-8.42,1.13-16.65.17-24.95-1.34-8.76-1.59-17.8-3.46-26.7-1.79a28.83,28.83,0,0,0-7.34,2.4c0-.29,0-.58,0-.86a30.64,30.64,0,0,1,6.89-2.23c8.2-1.6,16.57-.22,24.68,1.26,8.43,1.54,16.79,2.92,25.39,2a61.45,61.45,0,0,0,11.66-2.33c0,.14,0,.28.07.41Z"/><path class="cls-9" d="M179.15,238.52a79.3,79.3,0,0,1-51-1.06,1.71,1.71,0,0,1,.23-.13l.25-.13.43-.21a77.22,77.22,0,0,0,48.64,1.16Z"/><path class="cls-9" d="M191.3,257.36c-1.14.46-2.29.89-3.45,1.28a62.35,62.35,0,0,1-19.71,3.29c-7.44,0-14.61-1.7-21.91-2.95s-14.66-1.47-21.85.83l-1.32.45c-.07-.24-.14-.48-.2-.73.69-.25,1.39-.48,2.09-.69,6.76-2,13.63-1.88,20.53-.76,7.56,1.23,15,3.13,22.66,3.09a61.89,61.89,0,0,0,23.05-4.59C191.23,256.84,191.26,257.11,191.3,257.36Z"/><path class="cls-9" d="M197,278.81a14.65,14.65,0,0,1-7.32-1.1,7.48,7.48,0,0,1-4.3-6.27,13.72,13.72,0,0,1,6.2-12.18l.15.82a13.13,13.13,0,0,0-5.63,10.5,7,7,0,0,0,4.73,6.8,14.82,14.82,0,0,0,6,.68C196.94,278.31,197,278.56,197,278.81Z"/><path class="cls-9" d="M196.6,284.8c-.09.25-.18.5-.29.75-13.86-3.71-25.89-12.19-39.53-16.57-10-3.2-21.26-4.3-31.18-1l0-.1c-.06-.2-.12-.41-.19-.61a41.14,41.14,0,0,1,9.92-2c15-1.21,28.81,5.33,41.95,11.72A114.36,114.36,0,0,0,196.6,284.8Z"/><path class="cls-9" d="M138.85,286.94c-2.47,1.78-5,3.47-7.64,5l-.12-.81q2.91-1.76,5.72-3.71c2.28-1.59,9-5.36,6.17-8.89-1.06-1.34-3-1.79-4.59-2a26.52,26.52,0,0,0-5.84,0,28.61,28.61,0,0,0-4.3.82l-.18-.73a28.79,28.79,0,0,1,6.86-1c2.9-.07,7.75,0,9.15,3.19C145.63,282.46,141.22,285.23,138.85,286.94Z"/><path class="cls-9" d="M190.85,294c-.18.21-.35.41-.51.58a35,35,0,0,1-6.47-4.1c-4.1-3.17-8-6.94-12.89-8.78-5.74-2.14-11.46-.32-16.62,2.46A115.59,115.59,0,0,0,132,300.11c0-.33,0-.65,0-1q4.38-3.88,9.13-7.35a98.81,98.81,0,0,1,14.56-9.1c4.84-2.38,10.16-3.66,15.39-1.77,4.69,1.68,8.49,5.09,12.31,8.17A37.32,37.32,0,0,0,190.85,294Z"/><path class="cls-9" d="M151.13,307.47l-.82.18a7.67,7.67,0,0,0-8.32-4.76,19.11,19.11,0,0,0-10,4.49l0-1c4.42-3.4,11.58-6.46,16.35-2.73A8.52,8.52,0,0,1,151.13,307.47Z"/><path class="cls-9" d="M189.08,300.32a48.34,48.34,0,0,0-12.43.05,32,32,0,0,0-13.11,4.77l-1.72.26a27.36,27.36,0,0,1,5.7-3.29c7-3,14.24-3.34,21.49-2.53a2.45,2.45,0,0,1,0,.27v.09C189.05,300.06,189.06,300.19,189.08,300.32Z"/><path class="cls-9" d="M153.84,297.14a.56.56,0,0,0,.47.31.52.52,0,0,0,.27-.05,31.94,31.94,0,0,1,20.25-1.62,34.71,34.71,0,0,0,14,1.1l0-.63v-.08s.19-.16.52-.47a33.09,33.09,0,0,1-14.18-1,32.5,32.5,0,0,0-21,1.69A.55.55,0,0,0,153.84,297.14Z"/><polygon class="cls-14" points="180.36 423.03 176.02 440.48 188.72 441.32 196.88 423.03 180.36 423.03"/><path class="cls-10" d="M220.83,462.29l-47.72-.55a6.7,6.7,0,0,1-.6-2.66c-.25-4,1.11-10.47,1.79-14.53.08-.47.15-.91.21-1.31.09-.68.15-1.24.16-1.66,0-3.31,3-2.71,3-2.71,4.78,4.79,10.33-2.25,13.5.12,0,0,1.36,1,5.11,4.46s10.16,5.77,15.62,8.13c7,3.05,9,6,9.39,8.07A3.71,3.71,0,0,1,220.83,462.29Z"/><path class="cls-19" d="M220.83,462.29l-47.72-.55a6.7,6.7,0,0,1-.6-2.66l48.74.57A3.71,3.71,0,0,1,220.83,462.29Z"/><path class="cls-19" d="M178,461.79h-1.41a10.51,10.51,0,0,0,2.65-7.62,13.48,13.48,0,0,0-4.91-9.61c.08-.47.15-.91.21-1.31a14.6,14.6,0,0,1,5.84,10.88A11.59,11.59,0,0,1,178,461.79Z"/><path class="cls-8" d="M195.4,446.25a.78.78,0,0,1-.17-1.55l3-.71a.79.79,0,0,1,.37,1.54l-3,.7A.65.65,0,0,1,195.4,446.25Z"/><path class="cls-8" d="M192.7,443.91a.79.79,0,0,1-.17-1.55l3-.71a.8.8,0,0,1,.95.59.77.77,0,0,1-.59.94l-3,.71Z"/><path class="cls-8" d="M198.36,448a.79.79,0,0,1-.76-.61.78.78,0,0,1,.59-.94l3-.71a.79.79,0,0,1,.36,1.53l-3,.71Z"/><path class="cls-8" d="M201.32,449.72a.8.8,0,0,1-.76-.61.78.78,0,0,1,.59-.94l3-.71a.79.79,0,0,1,.36,1.53l-3,.71Z"/><path class="cls-8" d="M204.55,451.3a.79.79,0,0,1-.17-1.55l3-.71a.79.79,0,1,1,.36,1.53l-3,.71Z"/><path class="cls-8" d="M208.06,452.65a.79.79,0,0,1-.76-.6.8.8,0,0,1,.59-.95l3-.7a.79.79,0,0,1,1,.58.81.81,0,0,1-.59.95l-3,.7A.41.41,0,0,1,208.06,452.65Z"/><path class="cls-16" d="M186.44,396.62l-8,30.05,16.2,2.88s3.7-5.06,8.92-12.61l.47-.69c3.29-4.76,7.12-10.44,11-16.46.15-.23.3-.46.44-.69,3.63-5.64,7.27-11.54,10.51-17.21l.44-.79c5.66-10,10-19.19,10.71-24.91,2.28-18.46-39-32.67-39-32.67C173.13,324,165.3,358,165.3,358l34,5.21C193.09,370.55,191.11,379.88,186.44,396.62Z"/><path class="cls-20" d="M190.82,400.52c2-1.36,4.45-1.25,6.79-1.44a13.26,13.26,0,0,0,5.16-1.39,12.49,12.49,0,0,0,6-7.06c1.2-3.6.81-8.11,3.79-10.89a8.78,8.78,0,0,1,10.21-.91,10,10,0,0,1,3.18,3.06l.44-.79a10.82,10.82,0,0,0-3-2.87,9.78,9.78,0,0,0-9.24-.5c-3.66,1.74-4.62,5.4-5.29,9.09a16.45,16.45,0,0,1-2,6,11.84,11.84,0,0,1-4.7,4.26c-3.72,1.85-8.3.4-11.78,2.74C190,400.11,190.39,400.82,190.82,400.52Z"/><path class="cls-20" d="M203.57,416.94l.47-.69a10.74,10.74,0,0,1-1.48-11.53A9.91,9.91,0,0,1,215,399.79c.15-.23.3-.46.44-.69a10.71,10.71,0,0,0-13.63,5.21A11.61,11.61,0,0,0,203.57,416.94Z"/><path class="cls-20" d="M193.28,391.16a7.87,7.87,0,0,0,6-6.09c.64-3,.41-5.86,2.62-8.3s5.08-3.47,7.25-5.67c1.29-1.32,2.42-3.3,2-5.21a3.28,3.28,0,0,0-3.95-2.59.4.4,0,0,1-.21-.78c3-.89,5.38,2.12,5,4.94-.53,3.79-4.12,5.75-7,7.73-1.89,1.33-3.62,2.9-4.22,5.21-.54,2-.37,4.18-1.09,6.17a8.66,8.66,0,0,1-6.45,5.41Z"/><path class="cls-20" d="M186.4,412.44c1.45-.93,3-1.93,4.85-1.76a3.28,3.28,0,0,1,3,2.27c1,3.59-5.05,7.3-1.35,10.52.39.35-.18.92-.58.58-2-1.73-1.49-4.5-.3-6.49,1-1.58,2.74-4.38.41-5.7-1.9-1.07-4,.26-5.61,1.28-.44.28-.85-.42-.41-.7Z"/><path class="cls-17" d="M183.32,422.61l-.17,0a.62.62,0,0,1-.37-.8c.08-.22,7.89-21.91,11.78-37.6a51.48,51.48,0,0,1,14.35-24.27c-3.82-.36-10.13-1.69-10.44-1.75a.62.62,0,0,1-.48-.74.61.61,0,0,1,.74-.48c.08,0,8.56,1.8,11.73,1.81a.63.63,0,0,1,.59.42.61.61,0,0,1-.2.69,49.56,49.56,0,0,0-15.07,24.62C191.86,400.23,184,422,184,422.2A.63.63,0,0,1,183.32,422.61Z"/><path class="cls-17" d="M197.3,426h-.08L180,422.37a.63.63,0,0,1,.26-1.23l17.24,3.61a.63.63,0,0,1,.49.74A.62.62,0,0,1,197.3,426Z"/><polygon class="cls-14" points="263.98 405.13 274.81 418.43 285.75 410.73 275.69 394.1 263.98 405.13"/><path class="cls-10" d="M322.48,406.56l-37,30.1a6.84,6.84,0,0,1-2.16-1.66c-2.78-2.95-5.84-8.76-7.91-12.31-.24-.42-.47-.8-.68-1.15a15.79,15.79,0,0,0-.94-1.38c-2.09-2.57.55-4,.55-4,6.73.63,6.5-8.33,10.44-8.53,0,0,1.69-.1,6.78.15s11.51-2.06,17.22-3.73c7.36-2.17,10.79-1.14,12.37.19A3.73,3.73,0,0,1,322.48,406.56Z"/><path class="cls-19" d="M322.48,406.56l-37,30.1a6.84,6.84,0,0,1-2.16-1.66l37.83-30.74A3.73,3.73,0,0,1,322.48,406.56Z"/><path class="cls-19" d="M289.22,433.59l-1.1.89a10.47,10.47,0,0,0-2.83-7.55,13.44,13.44,0,0,0-9.92-4.24c-.24-.42-.47-.8-.68-1.15a14.63,14.63,0,0,1,11.45,4.63A11.63,11.63,0,0,1,289.22,433.59Z"/><path class="cls-8" d="M292.67,410.5a.78.78,0,0,1-1,0,.79.79,0,0,1-.15-1.1l1.84-2.45a.8.8,0,0,1,1.11-.16.8.8,0,0,1,.15,1.11l-1.85,2.45A.86.86,0,0,1,292.67,410.5Z"/><path class="cls-8" d="M289.1,410.42a.78.78,0,0,1-1.12-1.08l1.85-2.46a.79.79,0,0,1,1.1-.15.78.78,0,0,1,.15,1.1l-1.84,2.45A.62.62,0,0,1,289.1,410.42Z"/><path class="cls-8" d="M296.08,410a.79.79,0,0,1-1.13-1.08l1.85-2.46a.79.79,0,0,1,1.1-.15.78.78,0,0,1,.16,1.1l-1.85,2.45A.58.58,0,0,1,296.08,410Z"/><path class="cls-8" d="M299.44,409.38a.78.78,0,0,1-1,0,.79.79,0,0,1-.15-1.1l1.85-2.45a.78.78,0,0,1,1.1-.16.79.79,0,0,1,.15,1.1l-1.85,2.46A.57.57,0,0,1,299.44,409.38Z"/><path class="cls-8" d="M302.94,408.52a.8.8,0,0,1-1,0,.78.78,0,0,1-.16-1.1l1.85-2.46a.79.79,0,0,1,1.26.95l-1.85,2.45A.58.58,0,0,1,302.94,408.52Z"/><path class="cls-8" d="M306.5,407.32a.78.78,0,0,1-1.12-1.08l1.84-2.46a.79.79,0,0,1,1.26,1l-1.85,2.45A.86.86,0,0,1,306.5,407.32Z"/><path class="cls-16" d="M133.68,347.57a28.79,28.79,0,0,0,.6,3c1.69,6.7,5.82,13,15,14.79,22,4.38,62.57-13.14,62.57-13.14,5.37,10.87,18.19,25.24,31.95,37.43s24.89,22.5,24.89,22.5l14.18-9.07s-3.07-5.47-7.89-13.54l-.49-.81c-2.43-4.06-5.28-8.73-8.39-13.66-.18-.3-.37-.59-.56-.89-1.64-2.59-3.35-5.25-5.1-7.93l-.44-.66c-7.52-11.46-15.84-23.16-23.21-31.3l-.5-.54q-1.4-1.51-2.73-2.85l-.62-.6c-3.29-3.18-6.3-5.41-8.85-6.31a29.45,29.45,0,0,0-6.34-1.27c-.74-.08-1.51-.15-2.31-.2q-.43,0-.9-.06h0q-1-.06-2-.09c-2.34-.09-4.87-.09-7.54,0h0l-1.12,0c-5.67.17-11.91.63-18.27,1.25l-1.09.11h0c-3.84.38-7.71.83-11.51,1.3l-.81.1c-3.35.42-6.63.86-9.78,1.3l-.95.14c-7.28,1-13.78,2.06-18.59,2.86h0l-1.16.2c-4.62.77-7.41,1.29-7.41,1.29A49.6,49.6,0,0,0,133.68,347.57Z"/><path class="cls-20" d="M266.12,384.09a9.93,9.93,0,0,0,8.84,5.47l-.49-.81a8.59,8.59,0,0,1-2.5-.44,9.28,9.28,0,0,1-5.59-5.63,12,12,0,0,1-.3-7.59c-.18-.3-.37-.59-.56-.89A12.83,12.83,0,0,0,266.12,384.09Z"/><path class="cls-20" d="M220.58,355.45c1.54-5.27,3.75-12,9.92-13.31,5.25-1.08,10.15,3.85,12.82,7.8a24.3,24.3,0,0,1,3.14,6.63c.62,2.07.87,4.22,1.46,6.29,1,3.6,3.56,6.5,7.63,5.9a9,9,0,0,0,4.87-2.49l-.44-.66a8.88,8.88,0,0,1-1.35,1.08c-2.48,1.64-6,2-8.11-.38-1.48-1.65-2-4-2.39-6.1a33.3,33.3,0,0,0-1.82-6.47,24.46,24.46,0,0,0-8.05-10.22c-3.7-2.66-8.12-3.16-11.88-.33s-5.29,7.63-6.59,12A.41.41,0,0,0,220.58,355.45Z"/><path class="cls-20" d="M226.15,365.25c.83-4.12,2.19-9,6.79-10.28,4.15-1.13,6.72,2.32,7.14,6.06.32,2.79-.39,5.65.36,8.41a11.76,11.76,0,0,0,4.61,6c3.79,2.84,8.58,4.39,11.7,8.1,2.57,3.07,3.5,8.21.25,11.17-.38.35-1-.23-.57-.58,3.19-2.91,1.81-7.9-.84-10.66-2.94-3.06-7-4.55-10.45-7-3-2.12-5.43-4.9-5.8-8.68s1.32-10.35-3.34-12c-2.4-.88-5.07.58-6.49,2.5-1.53,2.08-2.07,4.67-2.57,7.15-.11.52-.89.3-.79-.21Z"/><path class="cls-20" d="M276.24,400.48a7.27,7.27,0,0,0-14.19-1.75c-.17.49-.95.28-.78-.22a8.08,8.08,0,0,1,15.79,2c0,.52-.78.52-.82,0Z"/><path class="cls-20" d="M214.52,322.48c1.82,3.66,4,7.09,7.94,8.8a12.87,12.87,0,0,0,11.08-.36l-.62-.6a12.06,12.06,0,0,1-11.21-.32c-2.94-1.65-4.78-4.47-6.29-7.46Q215,322.5,214.52,322.48Z"/><path class="cls-20" d="M172.19,325.17a13.84,13.84,0,0,0,15.13,11.29c4.82-.34,9.88-2,14.41.53,4,2.22,6.43,6.56,7.84,10.78.16.5,1,.28.79-.21a21.42,21.42,0,0,0-6.22-9.9c-3.41-2.81-7.43-3.14-11.66-2.63-4.72.56-9.38,1.45-13.63-1.29a13.25,13.25,0,0,1-5.85-8.67Z"/><path class="cls-20" d="M184.51,323.77a26.59,26.59,0,0,0,9.35,5.71,26.06,26.06,0,0,0,6,1.36,14,14,0,0,0,5.83-.21,3.27,3.27,0,0,0,2.26-3.52c-.17-1.88-1.62-3.4-2.87-4.68l-.06-.06h0l-1.12,0c1.28,1.19,2.85,2.67,3.2,4.42.55,2.77-2.12,3.32-4.22,3.34a25.62,25.62,0,0,1-17.25-6.51Z"/><path class="cls-20" d="M192.4,353a13.17,13.17,0,0,0-11.8-7.2c-4.94.11-9.69,2.69-14.48.3-4-2-6.46-6-10.49-7.87-4.6-2.13-10.6-.8-13.42,3.53a10.34,10.34,0,0,0-1.47,7.86c.68,2.91,2.86,5.07,4.52,7.45.3.43-.4.84-.7.41-1.56-2.23-3.55-4.26-4.4-6.9a10.87,10.87,0,0,1,.18-6.88,11.14,11.14,0,0,1,10.43-7.28c5.32-.1,8.66,3.45,12.41,6.65,2.21,1.88,4.6,3.3,7.58,3.3s5.91-1.08,8.9-1.33a14,14,0,0,1,13.44,7.55c.24.46-.46.88-.7.41Z"/><path class="cls-20" d="M173,357.29a18.85,18.85,0,0,0-10.92-5.81c-2.22-.33-4.84-.42-6.74.95s-2.58,4.48-.06,5.64c.47.22.06.92-.41.7a3.73,3.73,0,0,1-1.75-4.88c.94-2.21,3.32-3.21,5.57-3.38,5.53-.43,11.17,2.23,14.89,6.2.36.38-.22,1-.58.58Z"/><path class="cls-20" d="M141.71,329.67a16.81,16.81,0,0,0,8.61,3.11c4.64.31,10.32-1.76,12.09-6.31l-.95.14c-1.9,4.05-7.23,5.72-11.51,5.33a15.78,15.78,0,0,1-7.08-2.47h0Z"/><path class="cls-17" d="M228.3,375.21a.64.64,0,0,1-.34-.12c-10-7.75-15.38-19-16.64-21.94-5.23,3-21.26,7.75-22,8a.64.64,0,0,1-.78-.43.63.63,0,0,1,.43-.77c.18-.06,18-5.31,22.26-8.2a.61.61,0,0,1,.54-.08.64.64,0,0,1,.4.37c.05.13,5.32,13.41,16.53,22.1a.62.62,0,0,1,.11.87A.59.59,0,0,1,228.3,375.21Z"/><path class="cls-17" d="M265.6,409.09a.64.64,0,0,1-.48-.28.63.63,0,0,1,.18-.87l14.44-9.49a.62.62,0,0,1,.86.18.64.64,0,0,1-.17.87L266,409A.6.6,0,0,1,265.6,409.09Z"/><path class="cls-17" d="M269.09,406.71a.63.63,0,0,1-.49.18.62.62,0,0,1-.4-.18C268,406.48,244.35,383.09,233,373c-10.28-9.1-16.5-23.23-17.76-26.27-4.22,1.67-30.53,11.68-55,13-11.07.61-18-2.62-21.9-5.44a22.21,22.21,0,0,1-4-3.74c-.25-1-.45-2-.6-3a13,13,0,0,0,1.16,1.72,21.27,21.27,0,0,0,4.28,4.08c3.71,2.67,10.37,5.74,21,5.15,26.33-1.44,54.88-13,55.16-13.15a.6.6,0,0,1,.49,0,.63.63,0,0,1,.33.35c.07.16,6.38,16.38,17.66,26.36s35,33.51,35.29,33.74A.63.63,0,0,1,269.09,406.71Z"/><path class="cls-15" d="M177.24,206.35a3,3,0,0,1,2.34,2.91c.29,2.65-1.21,7-3.85,6.34S177.24,206.35,177.24,206.35Z"/><path class="cls-8" d="M169.75,218.44a5.76,5.76,0,1,1,4.87,6.53A5.77,5.77,0,0,1,169.75,218.44Zm1,.15a4.72,4.72,0,1,0,5.35-4A4.72,4.72,0,0,0,170.78,218.59Z"/><line class="cls-14" x1="169.11" y1="226.49" x2="169.11" y2="226.49"/><path class="cls-14" d="M147,232.88a16.31,16.31,0,0,0,10.94,8c9.73,1.83,11-2.32,11-2.32a15.32,15.32,0,0,1-.52-3.72q0-.8,0-1.65a44.65,44.65,0,0,1,.5-5.19c.07-.46.14-.94.22-1.42v-.06c-6.71-1.9-12.13-5.14-15.72-10.3l-1-.65-.67-.44-.14.39.08,1.26C152,222.7,150.5,227.55,147,232.88Z"/><path class="cls-10" d="M162.86,251.07c.21,0,.42,0,.63.05a5.51,5.51,0,0,0,4.6-2c3.16-4,1.18-12.35,1.1-12.71a.53.53,0,0,0-1,.25c0,.08,1.94,8.25-.89,11.8a4.41,4.41,0,0,1-3.77,1.61c-6.9-.08-15.78-17-15.87-17.17a.53.53,0,1,0-.94.48C147.06,234.07,155.48,250.09,162.86,251.07Z"/><path class="cls-3" d="M157.87,221.6c1.29,3.3,4.37,9.16,10.51,11.56a44.65,44.65,0,0,1,.5-5.19c.07-.46.14-.94.22-1.42l-.41,0C165,226.65,161.05,224.58,157.87,221.6Z"/><path class="cls-14" d="M143.9,205c-.38,3.66,2.24,8.48,7,9.12h0l.1,0c.06.22.12.43.19.66s.07.19.1.28v0c2.33,6.54,10.81,11.14,15.59,11.78a11,11,0,0,0,3.28-.07c5.2-.57,6.88-7.34,6.64-12.68a19,19,0,0,0-.22-2.21l0-.14s2.48-7.16,3.22-10.33c1.42-6.13-1.47-12.82-15-15.5s-17.65,5.42-19.09,9.81c-.24.73-.56,5.2.11,6A3.68,3.68,0,0,0,143.9,205Z"/><path class="cls-3" d="M167.94,209a.53.53,0,0,1-.44-.46c-.06-.53-.38-1.69-.95-1.89a2.74,2.74,0,0,0-1.9.31.54.54,0,0,1-.53-.93,3.8,3.8,0,0,1,2.79-.39c1.35.48,1.63,2.54,1.65,2.77a.53.53,0,0,1-.47.6Z"/><path class="cls-3" d="M172.55,210.34a.44.44,0,0,1-.15-.05.53.53,0,0,1-.24-.72c.09-.17.87-1.66,2.06-1.64a3,3,0,0,1,2,1.07.53.53,0,0,1-.07.75.54.54,0,0,1-.75-.06,2,2,0,0,0-1.22-.69c-.39,0-.91.68-1.09,1.05A.54.54,0,0,1,172.55,210.34Z"/><path class="cls-8" d="M166.15,214.18s-1,4.23,2.49,5.44a3.74,3.74,0,0,0,4.79-2.12Z"/><path class="cls-15" d="M167.49,221a2,2,0,0,1-.89-1,.33.33,0,0,1,.19-.42.34.34,0,0,1,.43.19,1.33,1.33,0,0,0,1.27.76.32.32,0,0,1,.33.32.33.33,0,0,1-.33.33A2.08,2.08,0,0,1,167.49,221Z"/><path class="cls-15" d="M150.92,214.1h0l.1,0c.06.22.12.43.19.66s.07.19.1.28v0a4.39,4.39,0,0,0,1.93-.54,3.44,3.44,0,0,0,1.09-1,.5.5,0,0,0-.1-.7.51.51,0,0,0-.7.1,2.65,2.65,0,0,1-1.28.91,3.54,3.54,0,0,1-.9.17A3.94,3.94,0,0,1,150.92,214.1Z"/><g class="cls-13"><path class="cls-15" d="M174.19,212.78c-.05.54,1.1,1.1,2.67,1.34a19,19,0,0,0-.22-2.21C175.26,211.94,174.23,212.28,174.19,212.78Z"/></g><path class="cls-8" d="M146,211.42c.28.26.55.52.84.77a4.71,4.71,0,1,0,2.7-.16,1.12,1.12,0,0,1-.53-1.14l.27,0a5.79,5.79,0,1,1-3.28.5Z"/><path class="cls-15" d="M170.8,214.16a.38.38,0,0,0,.23,0l2-.89a.42.42,0,0,0,.25-.34.44.44,0,0,0-.17-.38,6,6,0,0,1-2.35-4.5.42.42,0,0,0-.46-.37.42.42,0,0,0-.37.46,6.91,6.91,0,0,0,2.15,4.64l-1.37.62a.42.42,0,0,0-.21.56A.42.42,0,0,0,170.8,214.16Z"/><path class="cls-3" d="M168,201.84a1,1,0,0,0,.89-1.78,2.88,2.88,0,0,0-2-.53,7.32,7.32,0,0,0-5.62,3.35s3.66-1.37,5.6-1.23A5.62,5.62,0,0,1,168,201.84Z"/><path class="cls-3" d="M173.84,202.87a1,1,0,0,1-.34-2,2.93,2.93,0,0,1,2.06.05c3.59,1.31,3.45,4,3.45,4a13.44,13.44,0,0,0-4-1.95A5.67,5.67,0,0,0,173.84,202.87Z"/><g class="cls-13"><path class="cls-15" d="M165.71,212c-.05.62-1.64,1-3.55.82s-3.42-.81-3.37-1.43,1.65-1,3.56-.82S165.77,211.33,165.71,212Z"/></g><path class="cls-15" d="M151.68,211.29a.47.47,0,0,1-.36-.44c-.3-3.52-4.25-5.44-4.29-5.46a.5.5,0,0,1-.24-.67.5.5,0,0,1,.66-.23c.19.09,4.51,2.19,4.86,6.28a.51.51,0,0,1-.46.54Z"/><path class="cls-15" d="M147.58,208.91a.56.56,0,0,1-.17-.09.48.48,0,0,1-.09-.69,3.4,3.4,0,0,1,3.14-1.16.49.49,0,0,1-.14,1,2.42,2.42,0,0,0-2.21.78A.5.5,0,0,1,147.58,208.91Z"/><path class="cls-3" d="M163.12,193.22a6.31,6.31,0,0,1-3.16,5.83,18.81,18.81,0,0,1-4.59,1.9s3.36,11.1-.83,12.21-2.49-10.46-8.64-11.42c0,0-2.18-.69-1.55-4.57s5-14.21,18.53-12.59c10.17,1.21,18.62,7.62,18.23,14.8s-1.77,5.62-1.77,5.62,1.15-4.08-3.44-7.71C172.1,194.28,163.12,193.22,163.12,193.22Z"/><path class="cls-15" d="M168.22,304.59c5.53-.32,11,0,16.48-1,.48-.09.67.64.19.73-5.56,1-11.09.71-16.68,1-.49,0-.47-.73,0-.76Z"/><path class="cls-14" d="M149.59,291.81l0,.05h0l0-.05,0,0Z"/><polygon class="cls-14" points="149.67 291.9 149.67 291.9 149.67 291.9 149.67 291.9"/><path class="cls-14" d="M141.32,244.37,142.7,247c.47.92,1,1.84,1.43,2.76q1.44,2.76,2.94,5.48t3,5.41c1,1.78,2,3.55,3.09,5.27s2.12,3.4,3.2,5,2.19,3.18,3.29,4.6c.55.7,1.1,1.38,1.63,2s1.06,1.16,1.52,1.6l.17.17.16.14.29.27.25.21.09.07.07.06,0,.05.07,0,.08.06.39.22.48.24.53.25c1.49.67,3.32,1.34,5.19,2,.94.31,1.9.62,2.87.91s1.95.6,2.95.88c2,.58,4,1.12,6,1.65s4.08,1.06,6.15,1.57c4.12,1,8.28,2,12.45,3l12.52,2.89h0A6.4,6.4,0,0,1,212,306.43c-1.13,0-2.22-.08-3.32-.13l-3.29-.18c-2.2-.12-4.38-.28-6.58-.44-4.38-.36-8.76-.76-13.15-1.28-2.2-.27-4.4-.53-6.61-.85s-4.42-.66-6.66-1.05c-1.11-.19-2.24-.4-3.36-.61s-2.27-.46-3.41-.72a67.56,67.56,0,0,1-7.18-2l-1-.34-1-.4c-.35-.15-.69-.28-1.07-.46l-.28-.13a1.94,1.94,0,0,1-.3-.14l-.66-.34c-.23-.11-.42-.23-.63-.34l-.6-.35-1.09-.71c-.34-.24-.7-.48-1-.71l-.47-.36-.46-.35a42,42,0,0,1-3.21-2.84c-1-1-1.86-1.89-2.71-2.83a104,104,0,0,1-8.74-11.39c-1.29-1.92-2.52-3.84-3.72-5.77s-2.34-3.9-3.46-5.86-2.19-3.94-3.24-5.93c-.52-1-1-2-1.54-3l-.75-1.53-.37-.78-.39-.83a10.86,10.86,0,0,1,19.47-9.61Z"/><path class="cls-15" d="M158.7,285.16a12.09,12.09,0,0,1,4.78-4.6c.34-.19,0-.69-.33-.51a12.69,12.69,0,0,0-5,4.84c-.2.33.34.61.54.27Z"/><path class="cls-15" d="M158.15,282.6a11.94,11.94,0,0,1,3.36-1.05c.38-.06.35-.67,0-.61a13.37,13.37,0,0,0-3.65,1.15c-.35.16,0,.67.33.51Z"/><path class="cls-5" d="M622.11,443.94v6.18h-4.48v-2.79a1.42,1.42,0,0,0-1.42-1.42H597a1.19,1.19,0,0,0-1.2,1.19v3h-5.21v-3a1.19,1.19,0,0,0-1.2-1.19h-19a1.42,1.42,0,0,0-1.43,1.42v2.79h-4.47v-6.18a2.51,2.51,0,0,1,2.51-2.51h23.61V361.8h5.21v79.63h23.75A2.52,2.52,0,0,1,622.11,443.94Z"/><path class="cls-6" d="M597.15,404.45h-7.83a.94.94,0,0,1-1-.94V369.87h9.73v33.64A.94.94,0,0,1,597.15,404.45Z"/><path class="cls-3" d="M573.47,454.12a6.67,6.67,0,1,1-6.67-6.67A6.66,6.66,0,0,1,573.47,454.12Z"/><path class="cls-7" d="M566.8,457.94a3.82,3.82,0,1,1,3.82-3.82A3.82,3.82,0,0,1,566.8,457.94Z"/><path class="cls-3" d="M600,454.12a6.67,6.67,0,1,1-6.66-6.67A6.66,6.66,0,0,1,600,454.12Z"/><path class="cls-7" d="M593.31,457.94a3.82,3.82,0,1,1,3.81-3.82A3.83,3.83,0,0,1,593.31,457.94Z"/><path class="cls-3" d="M626.57,454.12a6.67,6.67,0,1,1-6.67-6.67A6.66,6.66,0,0,1,626.57,454.12Z"/><path class="cls-7" d="M619.9,457.94a3.82,3.82,0,1,1,3.82-3.82A3.82,3.82,0,0,1,619.9,457.94Z"/><path class="cls-6" d="M675.6,247.72,647.31,365.57a8.48,8.48,0,0,1-8.23,6.49H572.69a8.46,8.46,0,0,1-8.22-10.48L593.4,243.73a8.46,8.46,0,0,1,8.21-6.44h65.76A8.47,8.47,0,0,1,675.6,247.72Z"/><path class="cls-5" d="M668.29,247.72,640,365.57a8.46,8.46,0,0,1-8.22,6.49h-66.4a8.47,8.47,0,0,1-8.22-10.48l28.93-117.85a8.46,8.46,0,0,1,8.22-6.44h65.75A8.46,8.46,0,0,1,668.29,247.72Z"/><path class="cls-6" d="M631.78,366.31h-66.4a2.71,2.71,0,0,1-2.64-3.36L591.67,245.1a2.71,2.71,0,0,1,2.64-2.06h65.75a2.7,2.7,0,0,1,2.64,3.34L634.41,364.23A2.69,2.69,0,0,1,631.78,366.31ZM594.31,243.8a1.94,1.94,0,0,0-1.9,1.48L563.48,363.13a1.9,1.9,0,0,0,.36,1.67,1.92,1.92,0,0,0,1.54.75h66.4a1.93,1.93,0,0,0,1.89-1.5L662,246.21a1.9,1.9,0,0,0-.36-1.67,1.92,1.92,0,0,0-1.54-.74Z"/><path class="cls-6" d="M525.76,375.55H637.27a9.56,9.56,0,0,0,9.31-7.39l1.49-6.42H529Z"/><path class="cls-5" d="M527.28,375.55H630.1a9.55,9.55,0,0,0,9.31-7.39l1.49-6.42H527.28a6.9,6.9,0,0,0-6.72,5.34h0A6.9,6.9,0,0,0,527.28,375.55Z"/><path class="cls-14" d="M578.09,247.12l-.77,3.07c-.25,1-.51,2-.79,3-.54,2-1.09,4-1.67,6-1.16,4-2.38,7.93-3.72,11.89S568.37,279,566.7,283c-.84,2-1.73,4-2.74,6.07a49.24,49.24,0,0,1-3.72,6.43c-.41.58-.85,1.18-1.38,1.81a19.1,19.1,0,0,1-1.91,2,15.91,15.91,0,0,1-1.37,1.13,13.76,13.76,0,0,1-1.94,1.17,11.87,11.87,0,0,1-2.84,1,11.24,11.24,0,0,1-1.8.21h-.73l-.63,0a13.7,13.7,0,0,1-3.83-.89,17.14,17.14,0,0,1-2.53-1.22,27,27,0,0,1-3.56-2.48,52.53,52.53,0,0,1-5.17-5c-1.52-1.65-2.93-3.3-4.28-5s-2.65-3.34-3.91-5-2.47-3.39-3.61-5.14-2.22-3.52-3.23-5.35c-.51-.91-1-1.83-1.46-2.77-.24-.47-.46-.94-.68-1.42q-.18-.36-.33-.72l-.33-.76a5.89,5.89,0,0,1,9.32-6.73l.25.23c.34.3.72.66,1.06,1s.72.69,1.06,1.05c.7.7,1.39,1.42,2.07,2.14q2,2.16,4,4.35t3.88,4.37c1.28,1.45,2.58,2.87,3.89,4.23s2.63,2.68,4,3.89a37.35,37.35,0,0,0,3.84,3.13,9.18,9.18,0,0,0,1.47.86c.16.07.27.09.21.05a2.36,2.36,0,0,0-.89-.22l-.25,0h-.36a6.59,6.59,0,0,0-1.05.12,6.12,6.12,0,0,0-1.42.47,4.54,4.54,0,0,0-.66.37c-.12.07-.2.14-.22.14s0-.07.12-.23.24-.38.39-.64c.31-.53.65-1.2,1-1.91s.68-1.5,1-2.3c.67-1.61,1.31-3.34,1.91-5.11,1.21-3.54,2.34-7.24,3.39-11s2-7.54,3-11.35q.72-2.86,1.4-5.74l.68-2.86.65-2.81,0-.17a10.11,10.11,0,1,1,19.7,4.52A1.46,1.46,0,0,1,578.09,247.12Z"/><path class="cls-16" d="M565.2,226.78a26.05,26.05,0,0,0-7.45,12.62c-2.33,9.18-8.2,26.68-8.2,26.68s16,10,22.93,9.79Z"/><path class="cls-15" d="M548.28,284.83l2.87,1.16c.5.2.16,1-.34.77l-2.87-1.16c-.5-.2-.16-1,.34-.77Z"/><path class="cls-15" d="M546.53,284.25a7.38,7.38,0,0,1,2.18,4.59.45.45,0,0,0,.9-.1,8.35,8.35,0,0,0-2.51-5.18c-.41-.41-1,.29-.57.69Z"/><polygon class="cls-21" points="493.46 425.13 487.54 434.81 476.25 429.82 481.38 419.42 493.46 425.13"/><path class="cls-22" d="M440.49,435.32l42.71,18.9a6.54,6.54,0,0,0,1.61-2.13c1.86-3.49,3.27-9.76,4.31-13.65.12-.45.24-.88.35-1.25a12.07,12.07,0,0,1,.53-1.54c1.31-3-1.54-3.63-1.54-3.63-6.2,2.33-8.28-6.19-12.06-5.37,0,0-1.62.34-6.36,1.89s-11.39,1-17.21.89c-7.51-.16-10.48,1.69-11.64,3.36A3.7,3.7,0,0,0,440.49,435.32Z"/><path class="cls-23" d="M440.49,435.32l42.71,18.9a6.54,6.54,0,0,0,1.61-2.13l-43.62-19.3A3.7,3.7,0,0,0,440.49,435.32Z"/><path class="cls-23" d="M478.84,452.29l1.27.56a10.21,10.21,0,0,1,.73-7.85,13.18,13.18,0,0,1,8.28-6.56c.12-.45.24-.88.35-1.25a14.27,14.27,0,0,0-9.62,7.31A11.31,11.31,0,0,0,478.84,452.29Z"/><path class="cls-8" d="M469.65,431.38a.77.77,0,0,0,.78-1.32l-2.37-1.84a.77.77,0,0,0-.94,1.22l2.37,1.84Z"/><path class="cls-8" d="M473.29,430.33a.77.77,0,0,0,.78-1.31l-2.38-1.85a.77.77,0,0,0-.94,1.22l2.37,1.84Z"/><path class="cls-8" d="M466.3,431.75a.77.77,0,0,0,.78-1.32l-2.37-1.84a.77.77,0,0,0-1.08.14.78.78,0,0,0,.13,1.08l2.38,1.84Z"/><path class="cls-8" d="M463,432.06a.78.78,0,0,0,.92-.24.77.77,0,0,0-.14-1.08l-2.37-1.84a.77.77,0,0,0-.94,1.22l2.37,1.84Z"/><path class="cls-8" d="M459.45,432.15a.77.77,0,0,0,.78-1.32L457.86,429a.77.77,0,0,0-.94,1.22l2.37,1.84Z"/><path class="cls-8" d="M455.78,431.93a.77.77,0,0,0,.78-1.32l-2.37-1.84a.77.77,0,0,0-1.08.14.78.78,0,0,0,.13,1.08l2.38,1.84Z"/><path class="cls-3" d="M573.93,351.82c-27.28,4.46-42.51,13.64-42.51,13.64S521.74,387.82,516,396s-18.93,34.26-18.93,34.26l-19.87-8.49s2.05-5.08,5.28-12.85c.09-.19.17-.39.25-.59.9-2.16,1.88-4.51,2.94-7,.1-.22.19-.45.29-.69,1.95-4.61,4.12-9.69,6.42-15l.45-1c2-4.54,4.06-9.21,6.14-13.8.11-.23.21-.46.32-.7,1.2-2.64,2.41-5.25,3.6-7.8l.3-.63c1.55-3.29,3.08-6.47,4.57-9.46l.36-.73c2.41-4.83,4.7-9.13,6.74-12.56.12-.22.25-.43.37-.63a42,42,0,0,1,4.3-6.14c.16-.17.31-.34.46-.48l.17-.16c2.49-2.15,12.67-5.61,24.74-7.42l1.16-.17h0c9.88-1.37,20.89-1.6,29.91.92A27,27,0,0,1,573.93,351.82Z"/><path class="cls-7" d="M499.18,425.38a.63.63,0,0,1-.22-.05l-19.44-8.08a.57.57,0,0,1,.44-1.06l19.44,8.09a.57.57,0,0,1,.31.74A.57.57,0,0,1,499.18,425.38Z"/><path class="cls-7" d="M495.91,423.74a.52.52,0,0,1-.21,0,.58.58,0,0,1-.32-.74c0-.1,4.11-10.25,13.6-24.65s19.28-38.48,19.38-38.72a.58.58,0,0,1,.74-.32.57.57,0,0,1,.32.75c-.1.24-10,24.52-19.48,38.92s-13.45,24.34-13.49,24.44A.59.59,0,0,1,495.91,423.74Z"/><path class="cls-16" d="M631.51,326.21s0,0,0,0h0l-.08.06-.1.05,0,0-.08,0,0,0h0l-.11.06-.06,0-.78.45-.06,0a56,56,0,0,1-6.06,2.9,63,63,0,0,1-7.25,2.43c-.45.13-.91.24-1.37.36l-.11,0c-1.52.38-3,.7-4.58,1L609,334c-2.06.3-4.14.51-6.2.63l-.75,0a68.24,68.24,0,0,1-6.86,0l-.72,0h-.12l-1.12-.08c-1.22-.08-2.43-.21-3.62-.36l-1.25-.17a60.24,60.24,0,0,1-12.54-3.15l-.82-.31-.6-.24-.14-.06c-1.25-.52-2.46-1.08-3.59-1.68l-.16-.08a35,35,0,0,1-4.16-2.58c.11-2,.25-4.05.4-6.09h0c0-.44.06-.88.1-1.32.09-1.24.18-2.44.28-3.57,0,0,0,0,0,0,.23-2.36.43-4.82.62-7.26a.45.45,0,0,0,0-.08l.18-2.4c0-.49.07-1,.1-1.46h0c.34-4.67.6-9.12.77-12.63h0c0-.4,0-.78.06-1.16,0-.86.07-1.64.1-2.35.06-1.53.1-3,.13-4.46s0-2.79,0-4.13c0-1.53,0-3-.07-4.46,0-.78,0-1.53-.08-2.28h0c0-.35,0-.69,0-1s0-.64-.05-.95h0a1.77,1.77,0,0,1,0-.23c0-.35,0-.7-.07-1q-.1-1.76-.24-3.42-.32-3.7-.75-6.95c0-.38-.1-.75-.15-1.12-.52-3.74-1.14-7-1.75-9.84-.07-.34-.14-.68-.22-1-1.36-6.16-2.66-10.29-2.86-13.14a8,8,0,0,1,0-1.39,10,10,0,0,1,.41-2.1,7.89,7.89,0,0,1,.76-1.69,10.38,10.38,0,0,1,4.78-3.84l.69-.32c.62-.27,1.27-.53,1.93-.79l.7-.28c.73-.29,1.47-.59,2.2-.9h0c.55-.24,1.1-.51,1.64-.78l.69-.37c.22-.12.44-.24.65-.38l.82-.53a13.08,13.08,0,0,0,3.73-3.88l0,0,.36-.62,17.34-1.78a21.76,21.76,0,0,0,3.06,1.57l.69.3.43.16.49.19.28.1c.62.21,1.29.42,2,.63l.87.22.73.16.42.09.68.13c.47.09,1,.16,1.46.23l.79.09c.61.07,1.24.12,1.88.16a11.27,11.27,0,0,1,3.58.76c.24.09.48.19.71.3a12.54,12.54,0,0,1,2.28,1.39,13.12,13.12,0,0,1,1.15,1h0l.16.16.48.49c.22.24.44.5.66.76a19.65,19.65,0,0,1,1.52,2.13l.48.79.4.74c.11.2.21.41.32.62a40.43,40.43,0,0,1,3.08,9.18h0c.23,1,.44,2.12.62,3.24.51,3.06,1,6,1.51,8.95.06.33.11.67.17,1,.18,1.1.36,2.2.54,3.28q.49,3,.95,6l.18,1.22c.14.91.24,1.73.34,2.51.24,2,.38,3.71.63,6C633.18,268.23,636.87,313.45,631.51,326.21Z"/><path class="cls-17" d="M629.78,300.89c0,.26,0,.52,0,.77-.19,5.93-.64,12-1.45,18.15,0,.25-.07.5-.1.75-.21,1.56-.45,3.13-.71,4.7a.37.37,0,0,1-.32.3h-.1a.37.37,0,0,1-.3-.42c.26-1.57.5-3.14.71-4.7,0-.26.07-.51.1-.76.8-6.08,1.25-12.11,1.44-18,0-.25,0-.51,0-.76a237.36,237.36,0,0,0-6.74-62,.36.36,0,0,1,.26-.44.36.36,0,0,1,.45.25A238.82,238.82,0,0,1,629.78,300.89Z"/><path class="cls-3" d="M571.82,196.89s-3.61.91-4.79-1.77,1.78-5.1-2.18-7.6S557,179,561,175.23s6.21,1.56,9.42-3.14,4.8-5.27,9.58-5.94,6.38,3.64,11.29,2.89,8.77,4.77,7.76,8.05c-1.42,4.6-1.62,3.88-1,7.68s-1.94,6.85-4.88,6.75S571.82,196.89,571.82,196.89Z"/><path class="cls-21" d="M599.68,212.59c-.33,3.13-4.55,7.32-7,8.44a14.77,14.77,0,0,1-11.47.43l-1.16-6-.23-1.22-.45-2.33,12.79-12.33.74-.71.5-.48.29.49.33.57,0,.27C596.13,205.34,596.74,208.79,599.68,212.59Z"/><path class="cls-3" d="M580.76,219.56a16.29,16.29,0,0,0,8.84-10.71c-2.44,2.88-5.62,5.05-8.81,5.34-.34,0-.68,0-1,0Z"/><path class="cls-15" d="M569.37,195.61a2.61,2.61,0,0,0-1.65,2.83c.1,2.34,2,5.9,4.17,5S569.37,195.61,569.37,195.61Z"/><path class="cls-21" d="M594.39,200.2h0l-.09,0c0,.2,0,.41-.07.61a2.51,2.51,0,0,1,0,.27,11.5,11.5,0,0,1-.23,1.14c-1.55,6-7.7,12.72-13.65,13-.35,0-.69,0-1,0-5.84-.34-8.39-6.48-8.59-11.42,0-.18,0-.37,0-.55,0,0-.07-.33-.2-.9s-.24-1.08-.42-1.81c-.53-2.19-1.37-5.41-2.39-8.55-1.78-5.52.54-14.5,11.71-18.46,8.9-3.16,14.36,1.1,16.55,6a12.55,12.55,0,0,1,1,3.76,22.71,22.71,0,0,1-.12,5.1c1.1-.11,2.37.29,3.32,2.1C601.93,193.91,598.41,199.09,594.39,200.2Z"/><path class="cls-3" d="M596.85,188.45a10.44,10.44,0,0,1-3.22,2.05l-2,3.27-2.87-1.28s.7-3.61-1.23-4.46-1.39-3.21-1.39-3.21,6.89-5,9.78-5.23a12.55,12.55,0,0,1,1,3.76A22.71,22.71,0,0,1,596.85,188.45Z"/><path class="cls-3" d="M566.68,185.49s7.19-6.77,12.18-5.49a12.82,12.82,0,0,1,7.29,4.82s9.15.23,10.86-2.36-2.43-11.2-9.52-11.83S570.58,173.79,566.68,185.49Z"/><path class="cls-3" d="M571.85,197c.24.79.76,1.33,1.17,1.21s.55-.86.32-1.65-.75-1.33-1.16-1.21S571.62,196.21,571.85,197Z"/><path class="cls-3" d="M574.18,195.76a.18.18,0,0,0,.09-.1.21.21,0,0,0-.12-.28c-.09,0-2.29-.94-3.74.62a.22.22,0,0,0,0,.31.23.23,0,0,0,.31,0c1.24-1.34,3.23-.53,3.25-.52A.2.2,0,0,0,574.18,195.76Z"/><g class="cls-13"><path class="cls-15" d="M581.11,198.85c.13.53,1.56.64,3.19.25s2.86-1.15,2.73-1.68-1.56-.65-3.19-.25S581,198.32,581.11,198.85Z"/></g><g class="cls-13"><path class="cls-15" d="M570.48,202.41c1.11-.41,1.84-1,1.74-1.38s-1-.57-2.16-.43C570.23,201.33,570.38,202,570.48,202.41Z"/></g><path class="cls-15" d="M591.28,200.23a3.12,3.12,0,0,0,1.07.68,3.88,3.88,0,0,0,1.85.2l0-.27c0-.2.06-.41.07-.61l.08,0a2.58,2.58,0,0,1-.46.06,3.18,3.18,0,0,1-.8,0,2.3,2.3,0,0,1-1.23-.62.44.44,0,0,0-.62,0A.43.43,0,0,0,591.28,200.23Z"/><path class="cls-3" d="M579.29,215.29q.5,0,1,0c6-.33,12.1-7.08,13.64-13a1.9,1.9,0,0,0-1.6-1.34l-.71-7.14-2.87-1.28s-.9,6.7-3,7.44-7.3.95-9.2,2.63c0,0-3.82-.54-5.83,1.3C570.9,208.8,573.45,214.94,579.29,215.29Z"/><path class="cls-8" d="M580.8,202.05s.76,3.8-2.34,4.8a3.33,3.33,0,0,1-4.22-2Z"/><path class="cls-24" d="M579.46,208.1a1.77,1.77,0,0,0,.81-.83.29.29,0,1,0-.54-.22,1.22,1.22,0,0,1-1.16.65.29.29,0,0,0,0,.58A2,2,0,0,0,579.46,208.1Z"/><path class="cls-15" d="M594.71,197.1a.42.42,0,0,0,.25-.42c-.2-3.09,3-5.28,3-5.3a.45.45,0,0,0,.12-.61.44.44,0,0,0-.61-.11c-.15.1-3.62,2.48-3.39,6.07a.44.44,0,0,0,.47.41A.42.42,0,0,0,594.71,197.1Z"/><path class="cls-15" d="M598,194.51l.13-.1a.43.43,0,0,0,0-.62,3,3,0,0,0-2.87-.59.43.43,0,1,0,.25.83,2.12,2.12,0,0,1,2,.39A.45.45,0,0,0,598,194.51Z"/><path class="cls-15" d="M576,201.65a.41.41,0,0,0,.22-.23.43.43,0,0,0-.22-.57l-2.68-1.16,1.89-1.09a.46.46,0,0,0,.21-.3l1-5.47a.45.45,0,0,0-.35-.51.44.44,0,0,0-.51.35l-1,5.27-2.46,1.43a.41.41,0,0,0-.22.4.43.43,0,0,0,.26.37l3.47,1.51A.43.43,0,0,0,576,201.65Z"/><path class="cls-3" d="M582,191.13a1.08,1.08,0,0,0,.45-.35,1.21,1.21,0,0,0-.2-1.69c-.12-.09-3.07-2.36-6.09-.52a1.2,1.2,0,0,0,1.24,2.05,3.17,3.17,0,0,1,3.37.36A1.2,1.2,0,0,0,582,191.13Z"/><path class="cls-3" d="M569.86,194a1.17,1.17,0,0,0,.67-.78c.27-1,1.9-1.38,2.32-1.43a1.2,1.2,0,0,0-.29-2.38c-1.34.17-3.76,1-4.34,3.19a1.2,1.2,0,0,0,.85,1.46A1.13,1.13,0,0,0,569.86,194Z"/><path class="cls-3" d="M578.77,195c.23.79.75,1.34,1.16,1.22s.56-.86.32-1.65-.75-1.34-1.16-1.22S578.53,194.25,578.77,195Z"/><path class="cls-3" d="M581.68,194a.28.28,0,0,0,.1-.09.22.22,0,0,0-.08-.3c-.09-.05-2.16-1.22-3.8.14a.22.22,0,0,0,0,.31.22.22,0,0,0,.3,0c1.41-1.17,3.28-.11,3.3-.1A.27.27,0,0,0,581.68,194Z"/><path class="cls-20" d="M570.43,238.5a28.19,28.19,0,0,1-4.51,9.1c-.07-.34-.14-.68-.22-1a27.18,27.18,0,0,0,3.83-7.72,21,21,0,0,0-.73-14.44c.22-.11.45-.22.69-.32A21.62,21.62,0,0,1,570.43,238.5Z"/><path class="cls-20" d="M624.43,225.55a27.62,27.62,0,0,1-9.6,11.17h0c-.62.41-1.25.79-1.89,1.15-6.22,3.43-13.41,4.2-20.28,5.52s-13.3,3.57-18.68,8.2a33.78,33.78,0,0,0-6.16,7l-.15-1.12a35,35,0,0,1,5.57-6.22,36.86,36.86,0,0,1,16.7-8c7.08-1.59,14.54-2.08,21.18-5.24a25.79,25.79,0,0,0,4-2.36A26.79,26.79,0,0,0,624,224.75Z"/><path class="cls-17" d="M565.33,241.37c0,.25.46,2.23,1,5q.12.63.24,1.29c.8,4.47,1.78,10.45,2.14,15a.43.43,0,0,1-.76.3h0c-.34-4.58-1.34-10.72-2.16-15.26a.25.25,0,0,1,0-.08c-.64-3.53-1.16-6.09-1.18-6.16a.38.38,0,0,1,.3-.46A.4.4,0,0,1,565.33,241.37Z"/><path class="cls-17" d="M592.27,236.43a57.67,57.67,0,0,1-1.57-10.09,31.47,31.47,0,0,1,.55-7.38s5.76-3.31,7.38-7.7c0,0,6.71.88,8,5.44C606.58,216.7,599.89,232.47,592.27,236.43Z"/><path class="cls-17" d="M580.25,216.62s-4.11-.08-3.58,5.45c1,11,8.51,13.3,8.51,13.3l1-5.8a36.51,36.51,0,0,0,.14-8.66S580.8,221.12,580.25,216.62Z"/><path class="cls-17" d="M589.57,228.45a1.18,1.18,0,1,1-1.29-1A1.18,1.18,0,0,1,589.57,228.45Z"/><path class="cls-17" d="M589.65,233.12a1.18,1.18,0,0,1-1,1.29,1.17,1.17,0,1,1,1-1.29Z"/><path class="cls-17" d="M589.91,237.32a1.17,1.17,0,1,1-1.28-1A1.17,1.17,0,0,1,589.91,237.32Z"/><path class="cls-20" d="M592.77,264.07c-.15,2.89-3.15,5.21-5,7.12l-19,19.83c0-.4,0-.79.06-1.16,1.13-1.18,2.26-2.37,3.4-3.55q6.76-7.06,13.52-14.14,1.77-1.83,3.52-3.67a11,11,0,0,0,2.38-3.23c.73-1.76,0-3.5-2-3.76a8.48,8.48,0,0,0-3.59.52,52.46,52.46,0,0,0-17.16,9.12c0-.32,0-.64-.05-.95h0a53.34,53.34,0,0,1,12.64-7.34c2.39-1,5.21-2.28,7.86-2.14A3.27,3.27,0,0,1,592.77,264.07Z"/><path class="cls-20" d="M617.16,239.44c-5.1,2.5-10.13,5.7-13.19,10.62-2.73,4.38-3.76,10.06-1.22,14.76a11.9,11.9,0,0,0,4.52,4.68,12.33,12.33,0,0,0,6.47,1.26c2.62,0,6.19,0,6.63,3.38.36,2.69-1.34,5.28-1.37,8,0,4.74,5.48,8.2,9.76,6.33.45-.2.17-.92-.28-.72a6.29,6.29,0,0,1-6.66-1.25c-2-1.75-2.32-4-1.75-6.48.48-2.11,1.53-4.4.93-6.59a4.42,4.42,0,0,0-3.21-3.09c-2.09-.58-4.31-.17-6.45-.35a9.55,9.55,0,0,1-6.24-3.15c-3.7-4-3.75-9.77-1.49-14.52,2.75-5.77,8.27-9.41,13.83-12.14.44-.21.16-.93-.28-.71Z"/><path class="cls-20" d="M629.78,300.89c0,.26,0,.52,0,.77-.24,0-.49,0-.73,0a18.75,18.75,0,0,1-4.23-.36,16.57,16.57,0,0,1-7.4-3.53c-2.63-2.24-4.47-5.23-6.33-8.11s-4-6-7-7.94A10.82,10.82,0,0,0,593,281.3a47.17,47.17,0,0,0-9.54,6.77,88.28,88.28,0,0,0-8,7.7,89.51,89.51,0,0,0-7.5,9.35c0-.49.07-1,.1-1.46h0a90.76,90.76,0,0,1,8.25-9.9,88.11,88.11,0,0,1,7.85-7.24,41,41,0,0,1,9.19-6.21,11.31,11.31,0,0,1,9.55-.13,19,19,0,0,1,6.94,6.28c2.09,2.9,3.77,6.1,6.12,8.81a16,16,0,0,0,8.33,5.16,17.56,17.56,0,0,0,4.78.51Z"/><path class="cls-20" d="M630.94,326.54l-.78.44c-6-3.24-12.95-5-19.55-2.44-3.44,1.33-7.27,4.17-7.84,8.08a6,6,0,0,0,0,1.95c-.25,0-.5,0-.75,0-.54-2.88,1.09-5.67,3.14-7.6a16.94,16.94,0,0,1,8.69-4.16C619.87,321.79,625.74,323.64,630.94,326.54Z"/><path class="cls-20" d="M595.19,334.61l-.72,0h-.12c1.83-3.59,3.51-8.18,2.29-12a5.59,5.59,0,0,0-5.92-3.82c-2.61.17-5,1.59-7.08,3a33.59,33.59,0,0,0-8.64,8.71l-.59-.23-.15-.06c.29-.42.58-.83.88-1.24a32,32,0,0,1,11.53-9.86c4.16-2,9.66-1.34,10.85,3.8C598.4,326.71,597,331,595.19,334.61Z"/><path class="cls-20" d="M628.31,319.81c0,.25-.07.5-.1.75l-.72-.12c-.82-.16-1.63-.35-2.43-.59-6.39-1.88-10.91-6.51-15.65-10.92a34.91,34.91,0,0,0-7.74-5.84,15.67,15.67,0,0,0-11-1.24,32.68,32.68,0,0,0-11.33,5.87,68.39,68.39,0,0,0-8.59,7.54c-1.38,1.45-2.7,3-4,4.51,0-.44.06-.88.1-1.32a63.85,63.85,0,0,1,4.86-5.28C577,308,583.55,302.62,590.93,301c7-1.55,12.76,1.76,17.78,6.27s9.79,9.91,16.66,11.89c.74.21,1.48.39,2.22.53Z"/><polygon class="cls-21" points="542.77 427.01 540.74 442.29 528.39 442.29 528.97 428.06 542.77 427.01"/><path class="cls-22" d="M498,461.88l46.7-.18a6.53,6.53,0,0,0,.61-2.59c.27-3.95-1-10.25-1.64-14.23-.08-.46-.14-.89-.2-1.29a15,15,0,0,1-.14-1.62c0-3.24-2.88-2.68-2.88-2.68-4.71,4.66-10.09-2.27-13.2,0,0,0-1.35,1-5,4.32s-10,5.57-15.35,7.84c-6.92,2.92-8.87,5.82-9.25,7.82A3.63,3.63,0,0,0,498,461.88Z"/><path class="cls-23" d="M497.92,461.79h46.7a6.37,6.37,0,0,0,.61-2.59H497.54A3.6,3.6,0,0,0,497.92,461.79Z"/><path class="cls-23" d="M539.85,461.79h1.39a10.27,10.27,0,0,1-2.51-7.48,13.16,13.16,0,0,1,4.92-9.34c-.08-.47-.14-.9-.19-1.29a14.3,14.3,0,0,0-5.84,10.58A11.39,11.39,0,0,0,539.85,461.79Z"/><path class="cls-8" d="M523,446.39a.77.77,0,0,0,.18-1.52l-2.92-.73a.77.77,0,0,0-.37,1.5l2.92.72A.63.63,0,0,0,523,446.39Z"/><path class="cls-8" d="M525.89,444a.77.77,0,0,0,.18-1.52l-2.92-.72a.75.75,0,0,0-.93.56.77.77,0,0,0,.56.93l2.92.72A.58.58,0,0,0,525.89,444Z"/><path class="cls-8" d="M520.07,448.08a.77.77,0,0,0,.18-1.52l-2.91-.72a.78.78,0,0,0-.94.56.77.77,0,0,0,.57.93l2.91.73Z"/><path class="cls-8" d="M517.15,449.71a.77.77,0,0,0,.75-.58.78.78,0,0,0-.56-.94l-2.92-.72a.77.77,0,0,0-.93.56.76.76,0,0,0,.56.93l2.92.73Z"/><path class="cls-8" d="M514,451.22a.78.78,0,0,0,.75-.59.77.77,0,0,0-.56-.93l-2.92-.72a.77.77,0,0,0-.93.56.76.76,0,0,0,.56.93l2.92.73Z"/><path class="cls-8" d="M510.52,452.5a.77.77,0,0,0,.19-1.51l-2.92-.73a.77.77,0,0,0-.37,1.5l2.92.72A.55.55,0,0,0,510.52,452.5Z"/><path class="cls-3" d="M591.78,363.87c-26.46,0-39-2.56-39-2.56s-.63,23.37-1.87,33.23-6.51,38.26-6.51,38.26l-19.94,1s-.18-5-.3-12.71h0c0-.26,0-.53,0-.8,0-2.23-.05-4.67-.06-7.28h0c0-.35,0-.71,0-1.07,0-7.13.05-15.37.33-23.73h0c0-.42,0-.84,0-1.26h0c.13-3.75.31-7.5.54-11.18l.06-.9c.15-2.37.33-4.71.53-7,0-.24,0-.48.07-.71,1-11.42,2.74-21.29,5.43-26.54.12-.22.23-.44.35-.65a7.86,7.86,0,0,1,2.48-2.84c5.75-3.54,12.63-5.54,21.32-6.94l1-.16c5.47-.84,11.64-1.46,18.69-2.1l.76-.07h0c4.37-.39,9.07-.78,14.14-1.24l.74-.07,6-.55s7.27-1.23,15.34-1.8c.28,0,.57-.05.85-.06,7.62-.49,15.75-.34,19,2C631.77,326.17,641.32,363.87,591.78,363.87Z"/><path class="cls-7" d="M627.15,325.78a.57.57,0,0,0-1.13.16c0,.12,1.64,12.89-5.44,22-3.94,5.07-9.85,8.09-17.56,9-15.52,1.78-29.92.25-39.44-.76-7.69-.82-12.33-1.31-13.89.07s-2,8.44-2.87,22.09-3.11,35.83-5.94,47.85c.36.14,1-.34,1.32-.21,2.87-12.12,4.83-33.73,5.75-47.56.39-5.85.72-10.9,1.13-14.73.55-5.18,1.09-6.35,1.36-6.59,1.19-1.05,6.41-.5,13,.21,9.57,1,24,2.55,39.69.76,8-.92,14.19-4.09,18.33-9.41C628.86,339.14,627.22,326.32,627.15,325.78Z"/><path class="cls-7" d="M524.83,427.87a.57.57,0,0,1,0-1.14l20.31-1.28a.54.54,0,0,1,.57.53.56.56,0,0,1-.5.6l-20.32,1.28Z"/><path class="cls-14" d="M568.63,259.37s1.34-7,.55-9.27-.77-6.13-2.34-5.72-1.46,5.13-1.46,5.13Z"/><path class="cls-14" d="M627.11,244.1l-.81,3.22c-.27,1.06-.54,2.11-.83,3.15q-.84,3.14-1.75,6.26c-1.22,4.17-2.49,8.33-3.91,12.48s-2.9,8.3-4.65,12.49c-.88,2.1-1.81,4.21-2.87,6.36a50.8,50.8,0,0,1-3.91,6.75c-.42.61-.89,1.23-1.44,1.89a19.89,19.89,0,0,1-2,2.12A17.6,17.6,0,0,1,603.5,300a14.61,14.61,0,0,1-2,1.23,12.22,12.22,0,0,1-3,1,11.36,11.36,0,0,1-1.89.23h-.77c-.23,0-.44,0-.66,0a14.43,14.43,0,0,1-4-.94,18.84,18.84,0,0,1-2.65-1.27,28.4,28.4,0,0,1-3.74-2.61,55.22,55.22,0,0,1-5.41-5.19c-1.6-1.73-3.08-3.46-4.5-5.21s-2.78-3.5-4.1-5.27-2.58-3.55-3.78-5.39-2.33-3.69-3.39-5.61c-.53-.95-1-1.92-1.53-2.9-.25-.49-.48-1-.72-1.49l-.34-.76-.34-.8a6.17,6.17,0,0,1,9.77-7.05l.26.23c.36.32.75.7,1.12,1.06l1.11,1.1c.73.75,1.46,1.49,2.17,2.25,1.43,1.51,2.82,3,4.19,4.56s2.73,3.07,4.07,4.59,2.7,3,4.08,4.44,2.76,2.81,4.14,4.07a39.13,39.13,0,0,0,4,3.28,9.59,9.59,0,0,0,1.54.91c.17.07.28.1.22.05a2.4,2.4,0,0,0-.94-.23l-.26,0h-.37a6,6,0,0,0-1.1.13,6.5,6.5,0,0,0-1.49.48,6,6,0,0,0-.69.39c-.13.08-.21.15-.23.15s0-.07.12-.23.25-.41.41-.68c.32-.56.68-1.25,1-2s.72-1.56,1.07-2.41c.7-1.69,1.37-3.5,2-5.35,1.26-3.72,2.44-7.59,3.55-11.52s2.15-7.9,3.14-11.91c.49-2,1-4,1.46-6l.72-3,.67-2.95,0-.18a10.6,10.6,0,0,1,20.66,4.74Z"/><path class="cls-15" d="M595.85,283.66l3,1.21c.53.21.17,1-.36.8l-3-1.21c-.53-.21-.17-1,.36-.8Z"/><path class="cls-15" d="M594,283.05a7.78,7.78,0,0,1,2.3,4.81.47.47,0,0,0,.94-.11,8.77,8.77,0,0,0-2.63-5.44c-.44-.42-1,.31-.61.74Z"/><path class="cls-14" d="M568.2,266.23a6.73,6.73,0,0,1-9.09-2,16.56,16.56,0,0,0-3.81-4.1c-3.33-2.24-7.89-4-9.25-5.59-2-2.37,1.35-2.21,1.76-2.14A47.3,47.3,0,0,1,554,254.2s-5.62-3.87-8.26-4.39-3.76-2.67-1-3.59,9.82,2.05,11.56,3.41c0,0-2.85-3.28-6.4-4.11s-4.7-1.61-5.78-2.61,1.15-3,6.07-1.68a16.1,16.1,0,0,1,8.31,4.69,26.94,26.94,0,0,0-2.91-4.41c-2-2.6-6.21-3.23-6.63-5.16s4.36-1,6.76.66,4.29,2.73,6.31,5.9a47,47,0,0,1,4.58,8.47c.75,2.19,4.45,9.63,3.42,12.8A4.16,4.16,0,0,1,568.2,266.23Z"/><path class="cls-16" d="M628.43,240.47a111.14,111.14,0,0,1-1.06,14c0,.26-.07.53-.11.79-.75,5.55-1.59,9.72-1.59,9.72-1.93.05-5.44-.69-9.39-1.74l-.75-.2c-3.14-.86-6.51-1.88-9.52-2.84l-1.37-.43c-2.18-.71-4.11-1.36-5.56-1.85h0l-1.09-.37L596.4,257s.72-3.11,1.82-7.45c.06-.26.13-.52.19-.78l1-3.64c.07-.26.13-.52.2-.77,2.23-8.42,5.14-18.32,7-20.53a8,8,0,0,1,1.29-1.18c.21-.14.42-.28.64-.41a11.24,11.24,0,0,1,1.25-.63,12.6,12.6,0,0,1,10.9.37c.21.11.41.23.61.36a10.53,10.53,0,0,1,2.68,2.41,12.81,12.81,0,0,1,1,1.49c.12.2.24.4.35.61a24.57,24.57,0,0,1,2.84,8.51,42.68,42.68,0,0,1,.26,4.39C628.43,240,628.43,240.23,628.43,240.47Z"/><path class="cls-20" d="M627.37,254.49c0,.26-.07.53-.11.79a15.49,15.49,0,0,0-2.44.73,17.51,17.51,0,0,0-8.54,7.25l-.75-.2a18.34,18.34,0,0,1,8.76-7.64A16.8,16.8,0,0,1,627.37,254.49Z"/><path class="cls-20" d="M625.32,226.86c-.35.09-.69.19-1,.3-4.64,1.5-7.27,5.05-9.58,9.13-2,3.45-4.05,7.39-7.83,9.15a7.87,7.87,0,0,1-7.51-.3c.07-.26.13-.52.2-.77,3,2.32,7.45.76,10-1.79,3.12-3.14,4.58-7.46,7.23-10.94a14.9,14.9,0,0,1,8.21-5.39C625.09,226.45,625.21,226.65,625.32,226.86Z"/><path class="cls-20" d="M628.43,240.47c-3.74-.35-7.14,2.62-9.19,5.62s-3.49,6.53-5.89,9.36a15.34,15.34,0,0,1-7.34,4.77l-1.37-.43c4.55-.93,7.88-3.94,10.25-7.81,2.09-3.42,3.73-7.3,6.9-9.9a9.55,9.55,0,0,1,6.63-2.32C628.43,240,628.43,240.23,628.43,240.47Z"/><path class="cls-20" d="M599.08,257.94h0l-1.09-.37c2.6-1,5-2.81,3.12-5.47a9.32,9.32,0,0,0-2.89-2.54c.06-.26.13-.52.19-.78a8.37,8.37,0,0,1,3.9,3.92C603.35,255.19,601.39,256.89,599.08,257.94Z"/><path class="cls-20" d="M621.77,221.87l-.5.48c-2.35,2.23-4.91,4.07-8.31,3.82a6,6,0,0,1-5.09-3.51l-.08-.17a9.08,9.08,0,0,1-.34-5.57l.73.16a8.19,8.19,0,0,0,.33,5.17c1.17,2.65,3.9,3.6,6.62,3a12.13,12.13,0,0,0,5.53-3.26l.63-.61Z"/><path class="cls-17" d="M627.67,244.12a74,74,0,0,1-2.44,20.63.38.38,0,0,0,.73.2,75.05,75.05,0,0,0,2.46-20.83.38.38,0,0,0-.75,0Z"/><rect class="cls-3" x="141.28" y="408.67" width="49.1" height="4.56" rx="2.12"/><path class="cls-3" d="M632.52,463.7a3.26,3.26,0,0,1-3.08-2.21L579,309.9a3.24,3.24,0,1,1,6.15-2l50.5,151.59a3.25,3.25,0,0,1-2.06,4.1A3.29,3.29,0,0,1,632.52,463.7Z"/><rect class="cls-3" x="568.95" y="408.67" width="49.1" height="4.56" rx="2.12"/><path class="cls-3" d="M553.6,463.7a3.34,3.34,0,0,1-1-.16,3.24,3.24,0,0,1-2.05-4.1L601,307.85a3.24,3.24,0,1,1,6.15,2L556.68,461.49A3.25,3.25,0,0,1,553.6,463.7Z"/><path class="cls-3" d="M207.16,463.7a3.26,3.26,0,0,1-3.08-2.21L153.59,309.9a3.24,3.24,0,0,1,6.15-2l50.5,151.59a3.25,3.25,0,0,1-2.06,4.1A3.29,3.29,0,0,1,207.16,463.7Z"/><path class="cls-3" d="M128.24,463.7a3.29,3.29,0,0,1-1-.16,3.24,3.24,0,0,1-2-4.1l50.49-151.59a3.24,3.24,0,0,1,6.15,2L131.32,461.49A3.25,3.25,0,0,1,128.24,463.7Z"/><rect class="cls-3" x="140.1" y="300.25" width="482.33" height="13.86"/><rect class="cls-7" x="140.1" y="309.13" width="482.33" height="1.46"/><path class="cls-8" d="M203.41,300.25H309.52l1.16-2.61c.72-1.64-1.17-3.27-3.79-3.27H209c-1.76,0-3.3.76-3.79,1.85Z"/><path class="cls-8" d="M330.7,230.71l-12.79,54.08a3.2,3.2,0,0,1-3.11,2.46H236a3.2,3.2,0,0,1-3.11-3.93l12.79-54.08a3.19,3.19,0,0,1,3.11-2.46h78.77A3.2,3.2,0,0,1,330.7,230.71Z"/><path class="cls-25" d="M292.42,259.13a7.06,7.06,0,0,1-6.84,6.16,5.41,5.41,0,0,1-5.48-6.16,7,7,0,0,1,6.84-6.16A5.41,5.41,0,0,1,292.42,259.13Z"/><path class="cls-25" d="M251.94,226.78l-13.62,60.47H236a3.2,3.2,0,0,1-3.11-3.93l12.79-54.08a3.19,3.19,0,0,1,3.11-2.46Z"/><polygon class="cls-25" points="274.75 287.25 272.07 300.1 279.96 300.1 282.65 287.25 274.75 287.25"/><path class="cls-8" d="M260.55,297.92l1.62-2.27a3.08,3.08,0,0,1,2.5-1.29h21.64A3.07,3.07,0,0,1,289,296l1.09,2.08a1.46,1.46,0,0,1-1.3,2.14H261.75A1.46,1.46,0,0,1,260.55,297.92Z"/><path class="cls-8" d="M570.52,300.25H464.41l-1.15-2.61c-.73-1.64,1.16-3.27,3.78-3.27H565c1.76,0,3.31.76,3.79,1.85Z"/><path class="cls-8" d="M443.24,230.71,456,284.79a3.2,3.2,0,0,0,3.11,2.46H537.9a3.19,3.19,0,0,0,3.11-3.93l-12.79-54.08a3.19,3.19,0,0,0-3.1-2.46H446.34A3.19,3.19,0,0,0,443.24,230.71Z"/><path class="cls-25" d="M481.51,259.13a7.06,7.06,0,0,0,6.84,6.16,5.42,5.42,0,0,0,5.49-6.16A7.07,7.07,0,0,0,487,253,5.42,5.42,0,0,0,481.51,259.13Z"/><path class="cls-25" d="M522,226.78l13.62,60.47h2.29a3.19,3.19,0,0,0,3.11-3.93l-12.79-54.08a3.19,3.19,0,0,0-3.1-2.46Z"/><polygon class="cls-25" points="499.18 287.25 501.86 300.1 493.97 300.1 491.29 287.25 499.18 287.25"/><path class="cls-8" d="M513.38,297.92l-1.62-2.27a3.06,3.06,0,0,0-2.5-1.29H487.62a3.07,3.07,0,0,0-2.73,1.65l-1.09,2.08a1.46,1.46,0,0,0,1.3,2.14h27.09A1.46,1.46,0,0,0,513.38,297.92Z"/><rect class="cls-22" x="419.14" y="282.75" width="25.58" height="3.68" rx="1.14"/><path class="cls-22" d="M446,294.64a4.16,4.16,0,0,1-.94,2.5c-2.24,2.69-8.1,3.09-11.19,3.11l-1.21,0h0l-.55,0h-.19a36.58,36.58,0,0,1-5.07-.1L426,300c-2.78-.33-5.79-1.11-7.25-2.87a3.93,3.93,0,0,1-.76-1.44,4.27,4.27,0,0,1-.15-.71,7.92,7.92,0,0,1,.53-3.62c.09-.26.19-.52.29-.77s.32-.73.5-1.07c.28-.56.57-1.07.84-1.51l.18-.3.4-.61c.3-.43.49-.68.49-.68h21.64a20.45,20.45,0,0,1,1.59,2.49c.11.19.22.4.32.61a.21.21,0,0,0,0,.06,18,18,0,0,1,.71,1.66c.09.25.18.51.25.77a8.4,8.4,0,0,1,.35,1.88A4.57,4.57,0,0,1,446,294.64Z"/><path class="cls-26" d="M445.66,292a25.47,25.47,0,0,1-11.21,2c-3.86-.1-7.43-1.29-11.16-2.13a19.63,19.63,0,0,0-4.88-.53c.09-.26.19-.52.29-.77,4.08,0,8.39,1.77,12.28,2.38a27.29,27.29,0,0,0,11.58-.68,17.77,17.77,0,0,0,2.85-1.05C445.5,291.5,445.59,291.76,445.66,292Z"/><path class="cls-26" d="M436,286.43a12.59,12.59,0,0,1-15.77,1.29l.4-.61a11.87,11.87,0,0,0,14.29-.68Z"/><path class="cls-26" d="M446,294.64a35.07,35.07,0,0,0-12.13,5.61l-1.21,0A35.87,35.87,0,0,1,446,293.9,4.57,4.57,0,0,1,446,294.64Z"/><path class="cls-26" d="M426.86,300.1,426,300a3.14,3.14,0,0,0-1.4-2.76A11.18,11.18,0,0,0,418,295.7a4.27,4.27,0,0,1-.15-.71,15.44,15.44,0,0,1,3.25.25c1.68.32,3.8.86,4.9,2.29A3.66,3.66,0,0,1,426.86,300.1Z"/><path class="cls-26" d="M444.7,289.59a5.15,5.15,0,0,1-1.81.21,4.14,4.14,0,0,1-3.81-3.37h.77A3.52,3.52,0,0,0,444.2,289l.14,0c.11.19.22.4.32.61A.21.21,0,0,0,444.7,289.59Z"/><path class="cls-23" d="M442.75,286.79H421.11a.37.37,0,0,1-.37-.36.38.38,0,0,1,.37-.37h21.64a.37.37,0,0,1,.36.37A.36.36,0,0,1,442.75,286.79Z"/><path class="cls-16" d="M441,279.45c-.3.45-.59.86-.87,1.24-.88,1.2-1.59,2-1.65,2.06h-13c-.05-.07-.76-.86-1.64-2.06-.28-.38-.57-.79-.87-1.24-1.59-2.38-3.28-5.59-2.82-8a3.75,3.75,0,0,1,.64-1.63,1.74,1.74,0,0,1,.46-.41c1.41-.82,3.56,1.1,4.24,1,.92-.09-.58-4.67-2.71-7.92-2-3-3.29-7.11-.85-8.57a2.49,2.49,0,0,1,.28-.15l.28-.12c3.16-1.16,4.25,3.09,5.58,2.5S425.31,242,431.62,242c.1,0,.21,0,.31,0s.21,0,.31,0c6.31,0,2.29,13.6,3.61,14.17s2.42-3.66,5.58-2.5l.28.12a2.49,2.49,0,0,1,.28.15c2.44,1.46,1.14,5.53-.85,8.57-2.13,3.25-3.63,7.83-2.71,7.92.68.06,2.83-1.86,4.24-1a1.74,1.74,0,0,1,.46.41,3.76,3.76,0,0,1,.63,1.63C444.23,273.86,442.54,277.07,441,279.45Z"/><path class="cls-17" d="M432.24,242v40.76h-.62V242c.1,0,.21,0,.31,0S432.14,242,432.24,242Z"/><path class="cls-17" d="M432.16,265.34l-.23.2-.23.2-.08-.08-10-11.56.26-.17.28-.15,9.47,10.94.31.35Z"/><path class="cls-17" d="M432.16,282.05l-.23.2-.23.2-.08-.08-10.89-12.58a1.74,1.74,0,0,1,.46-.41l10.43,12.05.31.35Z"/><path class="cls-17" d="M442.24,254.1l-10,11.56-.08.08-.23-.2-.23-.2.23-.27.31-.35,9.47-10.94.28.15Z"/><path class="cls-17" d="M443.13,269.79l-10.89,12.57-.08.09-.23-.2-.23-.2.23-.27.31-.35,10.43-12.05A1.74,1.74,0,0,1,443.13,269.79Z"/><path class="cls-27" d="M271.89,64a10.87,10.87,0,1,1,10.87-10.87A10.88,10.88,0,0,1,271.89,64Zm0-20.22a9.35,9.35,0,1,0,9.34,9.35A9.35,9.35,0,0,0,271.89,43.82Z"/><path class="cls-27" d="M268.92,58.27h0a.77.77,0,0,1-.55-.29l-2-2.45a.76.76,0,0,1,1.19-1l1.44,1.8,8.08-8.08a.76.76,0,1,1,1.07,1.07l-8.68,8.69A.76.76,0,0,1,268.92,58.27Z"/><path class="cls-27" d="M351.2,82.94H332.39a11.32,11.32,0,0,1-11.32-11.32V63.93a12.84,12.84,0,0,0-12.84-12.85h-19.4a.79.79,0,0,0-.81.73.76.76,0,0,0,.76.8h19.45a11.32,11.32,0,0,1,11.32,11.32v7.69a12.84,12.84,0,0,0,12.84,12.84H351.2a.76.76,0,0,0,.76-.76h0A.76.76,0,0,0,351.2,82.94Z"/><path class="cls-27" d="M426.69,74.31a.73.73,0,0,1-.47-.17.76.76,0,0,1-.26-.83l2.25-6.86V52.78a3.17,3.17,0,0,1,3.17-3.17h22.05a3.17,3.17,0,0,1,3.16,3.17V66.25a3.17,3.17,0,0,1-3.16,3.16H434.85l-7.76,4.78A.75.75,0,0,1,426.69,74.31Zm4.69-23.17a1.63,1.63,0,0,0-1.64,1.64V66.57a1,1,0,0,1,0,.24l-1.64,5,6.18-3.8a.77.77,0,0,1,.39-.11h18.8a1.64,1.64,0,0,0,1.63-1.64V52.78a1.63,1.63,0,0,0-1.63-1.64Z"/><path class="cls-27" d="M438.07,59.69a1.82,1.82,0,1,1-1.82-1.82A1.81,1.81,0,0,1,438.07,59.69Z"/><path class="cls-27" d="M444.63,59.69a1.82,1.82,0,1,1-1.81-1.82A1.81,1.81,0,0,1,444.63,59.69Z"/><path class="cls-27" d="M451.2,59.69a1.82,1.82,0,1,1-1.82-1.82A1.81,1.81,0,0,1,451.2,59.69Z"/><path class="cls-8" d="M189.63,105.22H314.25a0,0,0,0,1,0,0v58.13a11.73,11.73,0,0,1-11.73,11.73H201.35a11.73,11.73,0,0,1-11.73-11.73V105.22A0,0,0,0,1,189.63,105.22Z"/><path class="cls-6" d="M242.2,141.61a21.91,21.91,0,1,1-42.12-8.46l20.21,8.46-1-21.87c.34,0,.69,0,1,0A21.91,21.91,0,0,1,242.2,141.61Z"/><path class="cls-28" d="M217.07,116.12a22,22,0,0,0-19.17,13.41L218.11,138Z"/><rect class="cls-5" x="291.93" y="126.53" width="3.01" height="3.01"/><rect class="cls-2" x="296.93" y="127.66" width="10.84" height="0.75" rx="0.03"/><rect class="cls-28" x="291.93" y="121.17" width="3.01" height="3.01"/><rect class="cls-2" x="296.93" y="122.3" width="10.84" height="0.75" rx="0.03"/><rect class="cls-6" x="291.93" y="131.89" width="3.01" height="3.01"/><rect class="cls-2" x="296.93" y="133.02" width="10.84" height="0.75" rx="0.03"/><path class="cls-2" d="M307.4,144.33H292.3a.37.37,0,0,1-.37-.38h0a.37.37,0,0,1,.37-.38h15.1a.37.37,0,0,1,.37.38h0A.37.37,0,0,1,307.4,144.33Z"/><path class="cls-2" d="M307.4,147.42H292.3a.37.37,0,0,1-.37-.38h0a.37.37,0,0,1,.37-.38h15.1a.37.37,0,0,1,.37.38h0A.37.37,0,0,1,307.4,147.42Z"/><path class="cls-2" d="M307.4,150.51H292.3a.37.37,0,0,1-.37-.38h0a.37.37,0,0,1,.37-.37h15.1a.37.37,0,0,1,.37.37h0A.37.37,0,0,1,307.4,150.51Z"/><path class="cls-2" d="M307.4,153.6H292.3a.36.36,0,0,1-.37-.37h0a.37.37,0,0,1,.37-.38h15.1a.37.37,0,0,1,.37.38h0A.36.36,0,0,1,307.4,153.6Z"/><path class="cls-2" d="M307.4,156.7H292.3a.37.37,0,0,1-.37-.38h0a.37.37,0,0,1,.37-.38h15.1a.37.37,0,0,1,.37.38h0A.37.37,0,0,1,307.4,156.7Z"/><path class="cls-2" d="M307.4,159.79H292.3a.37.37,0,0,1-.37-.38h0a.37.37,0,0,1,.37-.37h15.1a.37.37,0,0,1,.37.37h0A.37.37,0,0,1,307.4,159.79Z"/><path class="cls-2" d="M307.4,162.88H292.3a.36.36,0,0,1-.37-.37h0a.37.37,0,0,1,.37-.38h15.1a.37.37,0,0,1,.37.38h0A.36.36,0,0,1,307.4,162.88Z"/><path class="cls-5" d="M242.2,141.61a21.85,21.85,0,0,1-5.64,14.68l-16.27-14.68-1-21.87c.34,0,.69,0,1,0A21.91,21.91,0,0,1,242.2,141.61Z"/><rect class="cls-28" x="263.53" y="136.08" width="6.97" height="29.88"/><path class="cls-5" d="M263.53,158.08a27.16,27.16,0,0,0,7-3.6V166h-7Z"/><rect class="cls-28" x="252.13" y="144.39" width="6.97" height="21.58"/><path class="cls-5" d="M257.81,158.59q.66.09,1.29.12V166h-7v-7.19A12.46,12.46,0,0,1,257.81,158.59Z"/><rect class="cls-28" x="274.93" y="127.15" width="6.97" height="38.81"/><path class="cls-5" d="M281.9,148.42V166h-7V151.4C277.41,149.72,279.72,148.41,281.9,148.42Z"/><path class="cls-28" d="M281.62,115.84l-6.3,1.35,1.69,1.66-9.63,9.82L264,125.35l-12,12.19a1.18,1.18,0,0,0,0,1.67h0a1.18,1.18,0,0,0,1.67,0L264,128.69l3.38,3.32L278.7,120.5l1.69,1.66Z"/><path class="cls-3" d="M314.25,108.11H189.63V98.29a1.52,1.52,0,0,1,1.51-1.52H312.73a1.52,1.52,0,0,1,1.52,1.52Z"/><path class="cls-2" d="M297.11,102.08a1.84,1.84,0,1,1-1.84-1.84A1.84,1.84,0,0,1,297.11,102.08Z"/><path class="cls-2" d="M309.33,102.08a1.84,1.84,0,1,1-1.84-1.84A1.84,1.84,0,0,1,309.33,102.08Z"/><path class="cls-2" d="M303.4,102.08a1.84,1.84,0,1,1-1.84-1.84A1.84,1.84,0,0,1,303.4,102.08Z"/><rect class="cls-8" x="439.57" y="177.87" width="95.56" height="22.97" rx="8.96" transform="translate(974.71 378.72) rotate(180)"/><circle class="cls-16" cx="522.74" cy="188.55" r="7.49" transform="translate(19.78 424.86) rotate(-45)"/><polygon class="cls-8" points="521.29 192.49 518.7 189.9 519.78 188.82 521.29 190.33 525.7 185.92 526.78 187 521.29 192.49"/><path class="cls-29" d="M445.35,184.67h64.87a1,1,0,0,0,1-1h0a1,1,0,0,0-1-1H445.35a1,1,0,0,0-1,1h0A1,1,0,0,0,445.35,184.67Z"/><path class="cls-29" d="M445.35,196h64.87a1,1,0,0,0,1-1h0a1,1,0,0,0-1-1H445.35a1,1,0,0,0-1,1h0A1,1,0,0,0,445.35,196Z"/><path class="cls-29" d="M445.35,190.35h64.87a1,1,0,0,0,1-1h0a1,1,0,0,0-1-1H445.35a1,1,0,0,0-1,1h0A1,1,0,0,0,445.35,190.35Z"/><polygon class="cls-8" points="488.24 198.56 483.15 209.36 478.07 198.56 488.24 198.56"/></svg>